<?xml version="1.0" encoding="utf-8"?>
<!-- Generator: Adobe Illustrator 28.2.0, SVG Export Plug-In . SVG Version: 6.00 Build 0)  -->
<svg version="1.1" id="Layer_1" xmlns="http://www.w3.org/2000/svg" xmlns:xlink="http://www.w3.org/1999/xlink" x="0px" y="0px"
	 viewBox="0 0 1920 1080" style="enable-background:new 0 0 1920 1080;" xml:space="preserve">
<style type="text/css">
	.st0{fill:#FFFFFF;}
	.st1{opacity:0.32;}
	.st2{fill:#9B9B9B;enable-background:new    ;}
	.st3{fill:#055B54;}
	.st4{fill:#FFFFFF;enable-background:new    ;}
	.st5{fill:#BABABA;enable-background:new    ;}
	.st6{fill:#D5D5D5;enable-background:new    ;}
	.st7{fill:#00726A;}
	.st8{fill:#ECECEC;enable-background:new    ;}
</style>
<g>
	<g>
		<path class="st0" d="M684.98,740.01c-0.39,1.5-0.59,3.05-0.59,4.64c0.03,1,0.15,1.95,0.36,2.84c0.21,0.89,0.61,1.67,1.19,2.34
			c0.59,0.67,1.41,1.2,2.47,1.59c1.06,0.39,2.45,0.58,4.18,0.58l11.08-0.04v-12.04c0-4.71,1.27-8.33,3.82-10.87
			c2.55-2.54,6.18-3.81,10.89-3.81l7.65,0.17c0.61,0,1.19,0.13,1.73,0.4c0.54,0.27,1.01,0.6,1.4,1.02c0.39,0.42,0.7,0.9,0.92,1.44
			c0.22,0.54,0.34,1.12,0.34,1.74v21.95h6.35v8.99h-10.83c-0.61,0-1.19-0.12-1.74-0.36c-0.54-0.24-1.02-0.56-1.42-0.96
			c-0.4-0.4-0.72-0.88-0.96-1.42c-0.24-0.54-0.36-1.12-0.36-1.73v-22.2l-3.26-0.08c-1.09,0-1.99,0.1-2.72,0.29
			c-0.72,0.19-1.3,0.51-1.71,0.96c-0.42,0.45-0.72,1.03-0.9,1.76c-0.18,0.72-0.27,1.63-0.27,2.72l0.04,16.14
			c0,0.67-0.11,1.3-0.31,1.9c-0.21,0.6-0.51,1.12-0.9,1.55c-0.39,0.43-0.86,0.78-1.42,1.05c-0.56,0.27-1.18,0.4-1.88,0.4h-15.55
			c-3.18,0-5.85-0.48-8.03-1.42c-2.17-0.95-3.94-2.19-5.29-3.72c-1.35-1.53-2.33-3.28-2.93-5.25c-0.6-1.96-0.9-3.98-0.9-6.04
			c0-1.17,0.08-2.33,0.23-3.49c0.15-1.16,0.37-2.27,0.65-3.34c0.28-1.08,0.6-2.08,0.96-3.03c0.36-0.95,0.74-1.8,1.13-2.55l7.94,4.14
			C685.83,737.25,685.37,738.5,684.98,740.01z M686.9,769.63c0.25-0.6,0.59-1.12,1.02-1.55c0.43-0.43,0.94-0.77,1.53-1.02
			c0.59-0.25,1.21-0.38,1.88-0.38c0.67,0,1.3,0.13,1.9,0.38c0.6,0.25,1.11,0.59,1.55,1.02s0.77,0.95,1.02,1.55
			c0.25,0.6,0.38,1.23,0.38,1.9c0,0.67-0.13,1.3-0.38,1.88c-0.25,0.59-0.59,1.09-1.02,1.53s-0.95,0.77-1.55,1.03
			c-0.6,0.25-1.23,0.37-1.9,0.37c-0.67,0-1.3-0.13-1.88-0.37c-0.58-0.25-1.09-0.59-1.53-1.03c-0.43-0.43-0.77-0.94-1.02-1.53
			c-0.25-0.58-0.38-1.21-0.38-1.88C686.53,770.86,686.65,770.23,686.9,769.63z M698.11,769.63c0.25-0.6,0.59-1.12,1.02-1.55
			s0.94-0.77,1.53-1.02c0.59-0.25,1.21-0.38,1.88-0.38s1.3,0.13,1.9,0.38c0.6,0.25,1.11,0.59,1.55,1.02s0.77,0.95,1.02,1.55
			c0.25,0.6,0.38,1.23,0.38,1.9c0,0.67-0.13,1.3-0.38,1.88c-0.25,0.59-0.59,1.09-1.02,1.53s-0.95,0.77-1.55,1.03
			c-0.6,0.25-1.23,0.37-1.9,0.37s-1.3-0.13-1.88-0.37c-0.59-0.25-1.09-0.59-1.53-1.03s-0.77-0.94-1.02-1.53
			c-0.25-0.58-0.38-1.21-0.38-1.88C697.73,770.86,697.86,770.23,698.11,769.63z"/>
		<path class="st0" d="M747.45,751.96v-25.33h8.95v29.43c0.03,0.11,0.04,0.25,0.04,0.42c0,0.61-0.12,1.19-0.35,1.73
			c-0.24,0.54-0.56,1.02-0.96,1.42c-0.4,0.4-0.88,0.72-1.44,0.96c-0.56,0.24-1.14,0.36-1.75,0.36H735.7v-8.99H747.45z
			 M747.45,713.65c0.25-0.6,0.59-1.12,1.02-1.55c0.43-0.43,0.94-0.77,1.53-1.03c0.59-0.25,1.21-0.37,1.88-0.37
			c0.67,0,1.3,0.12,1.9,0.37c0.6,0.25,1.11,0.59,1.55,1.03c0.43,0.43,0.77,0.95,1.02,1.55c0.25,0.6,0.38,1.23,0.38,1.9
			c0,0.67-0.12,1.3-0.38,1.88c-0.25,0.59-0.59,1.09-1.02,1.53c-0.43,0.43-0.95,0.77-1.55,1.02c-0.6,0.25-1.23,0.38-1.9,0.38
			c-0.67,0-1.3-0.13-1.88-0.38c-0.59-0.25-1.09-0.59-1.53-1.02s-0.77-0.94-1.02-1.53c-0.25-0.59-0.38-1.21-0.38-1.88
			C747.07,714.88,747.2,714.25,747.45,713.65z"/>
		<path class="st0" d="M769.01,760.95c-0.61,0-1.19-0.12-1.73-0.36c-0.54-0.24-1.02-0.56-1.44-0.96c-0.42-0.4-0.75-0.88-0.98-1.42
			c-0.24-0.54-0.35-1.12-0.35-1.73c0-0.17,0.01-0.31,0.04-0.42v-45.61h8.95v41.51h8.23v8.99H769.01z"/>
		<path class="st0" d="M780.66,751.96h8.45v-25.33h8.95v25.33h7.61v8.99h-25V751.96z M788.32,770.25c0.25-0.6,0.59-1.12,1.02-1.55
			c0.43-0.43,0.94-0.77,1.53-1.02c0.59-0.25,1.21-0.38,1.88-0.38c0.67,0,1.3,0.13,1.9,0.38c0.6,0.25,1.11,0.59,1.55,1.02
			c0.43,0.43,0.77,0.95,1.02,1.55s0.38,1.23,0.38,1.9c0,0.67-0.13,1.3-0.38,1.88s-0.59,1.09-1.02,1.52
			c-0.43,0.43-0.95,0.77-1.55,1.03c-0.6,0.25-1.23,0.37-1.9,0.37c-0.67,0-1.3-0.12-1.88-0.37c-0.59-0.25-1.09-0.59-1.53-1.03
			c-0.43-0.43-0.77-0.94-1.02-1.52c-0.25-0.59-0.38-1.21-0.38-1.88C787.94,771.49,788.06,770.85,788.32,770.25z"/>
		<path class="st0" d="M804.94,751.96h6.9v-10.2c0-1.28,0.19-2.59,0.59-3.93c0.39-1.34,0.95-2.63,1.67-3.89
			c0.72-1.25,1.6-2.42,2.61-3.51c1.02-1.09,2.15-2.02,3.39-2.8c1.24-0.78,2.57-1.38,3.99-1.82c1.42-0.43,2.91-0.62,4.47-0.57
			l12.67,0.17c0.61,0,1.19,0.12,1.74,0.35c0.54,0.24,1.02,0.56,1.42,0.96c0.4,0.4,0.72,0.87,0.96,1.4c0.24,0.53,0.35,1.1,0.35,1.71
			v22.12h6.31v8.99h-47.07V751.96z M836.71,751.96v-17.64c-2.09-0.03-3.68-0.05-4.79-0.06c-1.1-0.02-1.91-0.03-2.43-0.04
			s-0.83-0.02-0.94-0.02h-0.21c-0.95,0-1.87,0.22-2.78,0.65c-0.91,0.43-1.72,1-2.43,1.69c-0.71,0.7-1.27,1.5-1.69,2.4
			c-0.42,0.91-0.63,1.83-0.63,2.78v10.24H836.71z"/>
		<path class="st0" d="M859.18,751.96v-41.51h8.95v45.61c0.03,0.11,0.04,0.25,0.04,0.42c0,0.61-0.12,1.19-0.36,1.73
			c-0.24,0.54-0.56,1.02-0.98,1.42c-0.42,0.4-0.9,0.72-1.44,0.96c-0.54,0.24-1.12,0.36-1.73,0.36h-12.5v-8.99H859.18z"/>
		<path class="st0" d="M877.82,760.87v-50.42h8.95v50.42H877.82z"/>
		<path class="st0" d="M915.01,751.92h23.66c-0.14-3.12-0.49-5.75-1.05-7.88c-0.56-2.13-1.43-3.87-2.63-5.2
			c-1.39-1.62-3.46-2.78-6.21-3.49s-6.38-1.04-10.89-0.98l-0.08-8.95c2.95-0.03,5.65,0.09,8.09,0.35c2.44,0.27,4.63,0.71,6.58,1.32
			c1.95,0.61,3.69,1.41,5.23,2.38c1.53,0.97,2.88,2.13,4.06,3.47c1.92,2.23,3.32,4.9,4.2,8.01c0.88,3.1,1.43,6.78,1.65,11.01h5.23
			v8.99l-37.83-0.04V751.92z"/>
		<path class="st0" d="M960.64,726.63h8.95v25.33h7.65v8.99H952.2v-8.99h8.45V726.63z M954.62,770.46c0.25-0.6,0.59-1.11,1.02-1.55
			c0.43-0.43,0.94-0.77,1.53-1.03c0.59-0.25,1.21-0.37,1.88-0.37s1.3,0.13,1.9,0.37c0.6,0.25,1.11,0.59,1.55,1.03
			c0.43,0.43,0.77,0.95,1.02,1.55c0.25,0.6,0.38,1.23,0.38,1.9c0,0.67-0.13,1.3-0.38,1.88c-0.25,0.59-0.59,1.09-1.02,1.53
			c-0.43,0.43-0.95,0.77-1.55,1.02c-0.6,0.25-1.23,0.38-1.9,0.38s-1.3-0.13-1.88-0.38c-0.59-0.25-1.09-0.59-1.53-1.02
			c-0.43-0.43-0.77-0.94-1.02-1.53s-0.38-1.21-0.38-1.88C954.25,771.7,954.37,771.06,954.62,770.46z M965.83,770.46
			c0.25-0.6,0.59-1.11,1.02-1.55c0.43-0.43,0.94-0.77,1.53-1.03c0.59-0.25,1.21-0.37,1.88-0.37c0.67,0,1.3,0.13,1.9,0.37
			c0.6,0.25,1.11,0.59,1.55,1.03c0.43,0.43,0.77,0.95,1.03,1.55c0.25,0.6,0.37,1.23,0.37,1.9c0,0.67-0.13,1.3-0.37,1.88
			c-0.25,0.59-0.59,1.09-1.03,1.53c-0.43,0.43-0.95,0.77-1.55,1.02c-0.6,0.25-1.23,0.38-1.9,0.38c-0.67,0-1.3-0.13-1.88-0.38
			c-0.59-0.25-1.09-0.59-1.53-1.02c-0.43-0.43-0.77-0.94-1.02-1.53c-0.25-0.59-0.38-1.21-0.38-1.88
			C965.45,771.7,965.57,771.06,965.83,770.46z"/>
		<path class="st0" d="M984.88,726.63h8.95v25.33h7.65v8.99h-25.04v-8.99h8.45V726.63z M978.86,770.46c0.25-0.6,0.59-1.11,1.02-1.55
			c0.43-0.43,0.94-0.77,1.53-1.03c0.59-0.25,1.21-0.37,1.88-0.37c0.67,0,1.3,0.13,1.9,0.37c0.6,0.25,1.11,0.59,1.55,1.03
			c0.43,0.43,0.77,0.95,1.02,1.55c0.25,0.6,0.38,1.23,0.38,1.9c0,0.67-0.13,1.3-0.38,1.88c-0.25,0.59-0.59,1.09-1.02,1.53
			c-0.43,0.43-0.95,0.77-1.55,1.02c-0.6,0.25-1.23,0.38-1.9,0.38c-0.67,0-1.29-0.13-1.88-0.38c-0.59-0.25-1.09-0.59-1.53-1.02
			c-0.43-0.43-0.77-0.94-1.02-1.53c-0.25-0.59-0.38-1.21-0.38-1.88C978.48,771.7,978.61,771.06,978.86,770.46z M990.06,770.46
			c0.25-0.6,0.59-1.11,1.02-1.55c0.43-0.43,0.94-0.77,1.53-1.03c0.59-0.25,1.21-0.37,1.88-0.37c0.67,0,1.3,0.13,1.9,0.37
			c0.6,0.25,1.12,0.59,1.55,1.03c0.43,0.43,0.77,0.95,1.03,1.55c0.25,0.6,0.37,1.23,0.37,1.9c0,0.67-0.13,1.3-0.37,1.88
			c-0.25,0.59-0.59,1.09-1.03,1.53c-0.43,0.43-0.95,0.77-1.55,1.02c-0.6,0.25-1.23,0.38-1.9,0.38c-0.67,0-1.3-0.13-1.88-0.38
			c-0.59-0.25-1.09-0.59-1.53-1.02c-0.43-0.43-0.77-0.94-1.02-1.53c-0.25-0.59-0.38-1.21-0.38-1.88
			C989.68,771.7,989.81,771.06,990.06,770.46z"/>
		<path class="st0" d="M1034.57,757.9c-0.31,0.89-0.84,1.62-1.61,2.19c-0.77,0.57-1.65,0.86-2.65,0.86h-14.05v-3.05
			c-0.31,0.89-0.85,1.62-1.63,2.19c-0.78,0.57-1.66,0.86-2.63,0.86h-11.33v-8.99h6.81v-25.33h8.99v25.33h9.37v-25.33h8.95v25.33
			h9.41v-25.33h8.95v25.33h6.77v8.99h-25.34V757.9z M1019.14,713.78c0.25-0.6,0.59-1.12,1.03-1.55c0.43-0.43,0.94-0.77,1.53-1.02
			c0.59-0.25,1.21-0.38,1.88-0.38c0.67,0,1.3,0.13,1.9,0.38c0.6,0.25,1.11,0.59,1.55,1.02c0.43,0.43,0.77,0.95,1.02,1.55
			c0.25,0.6,0.38,1.23,0.38,1.9c0,0.67-0.13,1.3-0.38,1.88c-0.25,0.59-0.59,1.09-1.02,1.52c-0.43,0.43-0.95,0.77-1.55,1.03
			c-0.6,0.25-1.23,0.37-1.9,0.37c-0.67,0-1.29-0.12-1.88-0.37c-0.59-0.25-1.09-0.59-1.53-1.03c-0.43-0.43-0.77-0.94-1.03-1.52
			c-0.25-0.59-0.37-1.21-0.37-1.88C1018.77,715.01,1018.9,714.37,1019.14,713.78z M1025.88,702.95c0.25-0.6,0.59-1.12,1.02-1.55
			c0.43-0.43,0.94-0.77,1.53-1.03c0.59-0.25,1.21-0.37,1.88-0.37c0.67,0,1.3,0.12,1.9,0.37c0.6,0.25,1.11,0.59,1.55,1.03
			c0.43,0.43,0.77,0.95,1.03,1.55c0.25,0.6,0.37,1.23,0.37,1.9c0,0.67-0.13,1.3-0.37,1.88c-0.25,0.59-0.59,1.09-1.03,1.53
			s-0.95,0.77-1.55,1.02c-0.6,0.25-1.23,0.38-1.9,0.38c-0.67,0-1.3-0.13-1.88-0.38c-0.59-0.25-1.09-0.59-1.53-1.02
			s-0.77-0.94-1.02-1.53c-0.25-0.59-0.38-1.21-0.38-1.88C1025.5,704.18,1025.62,703.55,1025.88,702.95z M1032.57,713.78
			c0.25-0.6,0.59-1.12,1.02-1.55c0.43-0.43,0.94-0.77,1.53-1.02c0.59-0.25,1.21-0.38,1.88-0.38c0.67,0,1.3,0.13,1.9,0.38
			c0.6,0.25,1.11,0.59,1.55,1.02c0.43,0.43,0.77,0.95,1.03,1.55c0.25,0.6,0.37,1.23,0.37,1.9c0,0.67-0.13,1.3-0.37,1.88
			c-0.25,0.59-0.59,1.09-1.03,1.52c-0.43,0.43-0.95,0.77-1.55,1.03c-0.6,0.25-1.23,0.37-1.9,0.37c-0.67,0-1.3-0.12-1.88-0.37
			c-0.59-0.25-1.09-0.59-1.53-1.03c-0.43-0.43-0.77-0.94-1.02-1.52c-0.25-0.59-0.38-1.21-0.38-1.88
			C1032.19,715.01,1032.31,714.37,1032.57,713.78z"/>
		<path class="st0" d="M1059.13,751.96h8.44v-25.33h8.95v25.33h7.61v8.99h-25V751.96z M1060.76,713.78c0.25-0.6,0.59-1.12,1.03-1.55
			c0.43-0.43,0.94-0.77,1.52-1.02c0.59-0.25,1.21-0.38,1.88-0.38c0.67,0,1.3,0.13,1.9,0.38c0.6,0.25,1.12,0.59,1.55,1.02
			c0.43,0.43,0.77,0.95,1.02,1.55c0.25,0.6,0.38,1.23,0.38,1.9c0,0.67-0.13,1.3-0.38,1.88c-0.25,0.59-0.59,1.09-1.02,1.52
			c-0.43,0.43-0.95,0.77-1.55,1.03c-0.6,0.25-1.23,0.37-1.9,0.37c-0.67,0-1.3-0.12-1.88-0.37c-0.59-0.25-1.09-0.59-1.52-1.03
			c-0.43-0.43-0.77-0.94-1.03-1.52c-0.25-0.59-0.37-1.21-0.37-1.88C1060.38,715.01,1060.5,714.37,1060.76,713.78z M1071.96,713.78
			c0.25-0.6,0.59-1.12,1.02-1.55c0.43-0.43,0.94-0.77,1.53-1.02c0.59-0.25,1.21-0.38,1.88-0.38c0.67,0,1.3,0.13,1.9,0.38
			c0.6,0.25,1.11,0.59,1.55,1.02c0.43,0.43,0.77,0.95,1.02,1.55c0.25,0.6,0.38,1.23,0.38,1.9c0,0.67-0.13,1.3-0.38,1.88
			c-0.25,0.59-0.59,1.09-1.02,1.52c-0.43,0.43-0.95,0.77-1.55,1.03c-0.6,0.25-1.23,0.37-1.9,0.37c-0.67,0-1.29-0.12-1.88-0.37
			c-0.59-0.25-1.09-0.59-1.53-1.03c-0.43-0.43-0.77-0.94-1.02-1.52c-0.25-0.59-0.38-1.21-0.38-1.88
			C1071.58,715.01,1071.71,714.37,1071.96,713.78z"/>
		<path class="st0" d="M1091.43,751.96v-41.51h8.95v45.61c0.03,0.11,0.04,0.25,0.04,0.42c0,0.61-0.12,1.19-0.36,1.73
			c-0.24,0.54-0.56,1.02-0.98,1.42c-0.42,0.4-0.9,0.72-1.44,0.96c-0.54,0.24-1.12,0.36-1.73,0.36h-12.5v-8.99H1091.43z"/>
		<path class="st0" d="M1153.95,760.95c-0.69,0-1.32-0.13-1.88-0.4c-0.56-0.26-1.03-0.61-1.42-1.05c-0.39-0.43-0.69-0.94-0.9-1.52
			c-0.21-0.59-0.31-1.21-0.31-1.88l-0.08-21.86l-7.9-0.04c-1.06,0-2.07,0.21-3.03,0.63c-0.96,0.42-1.8,0.99-2.51,1.71
			c-0.71,0.72-1.27,1.57-1.69,2.53c-0.42,0.96-0.63,1.97-0.63,3.03l0.04,9.66c1.28,0.25,2.58,0.43,3.89,0.54
			c1.31,0.11,2.63,0.17,3.97,0.17c1.14,0,2.3-0.04,3.47-0.13l0.71,8.95c-0.72,0.05-1.43,0.1-2.11,0.13
			c-0.68,0.03-1.39,0.04-2.11,0.04c-2.26,0-4.53-0.14-6.81-0.42c-2.28-0.28-4.43-0.71-6.44-1.3c-1.03-0.22-1.88-0.74-2.55-1.55
			c-0.67-0.81-1-1.76-1-2.84V742.1c0-2.31,0.44-4.49,1.32-6.54c0.88-2.05,2.08-3.83,3.6-5.35c1.52-1.52,3.29-2.72,5.33-3.62
			c2.04-0.89,4.22-1.34,6.56-1.34h11.12c0.75,0,1.47,0.15,2.15,0.44c0.68,0.29,1.28,0.69,1.8,1.19c0.51,0.5,0.93,1.08,1.25,1.74
			c0.32,0.65,0.48,1.36,0.48,2.11l0.13,21.24h7.19v8.99H1153.95z M1133.85,713.78c0.25-0.6,0.59-1.12,1.02-1.55
			c0.43-0.43,0.94-0.77,1.53-1.02c0.59-0.25,1.21-0.38,1.88-0.38c0.67,0,1.3,0.13,1.9,0.38c0.6,0.25,1.12,0.59,1.55,1.02
			c0.43,0.43,0.77,0.95,1.03,1.55c0.25,0.6,0.37,1.23,0.37,1.9c0,0.67-0.13,1.3-0.37,1.88c-0.25,0.59-0.59,1.09-1.03,1.52
			c-0.43,0.43-0.95,0.77-1.55,1.03c-0.6,0.25-1.23,0.37-1.9,0.37c-0.67,0-1.3-0.12-1.88-0.37c-0.59-0.25-1.09-0.59-1.53-1.03
			c-0.43-0.43-0.77-0.94-1.02-1.52c-0.25-0.59-0.38-1.21-0.38-1.88C1133.47,715.01,1133.59,714.37,1133.85,713.78z M1145.05,713.78
			c0.25-0.6,0.59-1.12,1.03-1.55c0.43-0.43,0.94-0.77,1.52-1.02c0.59-0.25,1.21-0.38,1.88-0.38c0.67,0,1.3,0.13,1.9,0.38
			c0.6,0.25,1.12,0.59,1.55,1.02c0.43,0.43,0.77,0.95,1.02,1.55c0.25,0.6,0.38,1.23,0.38,1.9c0,0.67-0.13,1.3-0.38,1.88
			c-0.25,0.59-0.59,1.09-1.02,1.52c-0.43,0.43-0.95,0.77-1.55,1.03c-0.6,0.25-1.23,0.37-1.9,0.37c-0.67,0-1.3-0.12-1.88-0.37
			c-0.58-0.25-1.09-0.59-1.52-1.03c-0.43-0.43-0.77-0.94-1.03-1.52c-0.25-0.59-0.37-1.21-0.37-1.88
			C1144.67,715.01,1144.8,714.37,1145.05,713.78z"/>
		<path class="st0" d="M1164.55,751.96h8.45v-25.33h8.95v25.33h7.61v8.99h-25V751.96z M1165.93,713.86c0.25-0.6,0.59-1.11,1.03-1.55
			s0.94-0.77,1.53-1.02c0.59-0.25,1.21-0.38,1.88-0.38c0.67,0,1.3,0.13,1.9,0.38c0.6,0.25,1.11,0.59,1.55,1.02s0.77,0.95,1.02,1.55
			c0.25,0.6,0.38,1.23,0.38,1.9c0,0.67-0.13,1.29-0.38,1.88c-0.25,0.59-0.59,1.09-1.02,1.53s-0.95,0.77-1.55,1.02
			c-0.6,0.25-1.23,0.38-1.9,0.38c-0.67,0-1.29-0.13-1.88-0.38c-0.59-0.25-1.09-0.59-1.53-1.02s-0.77-0.94-1.03-1.53
			c-0.25-0.59-0.37-1.21-0.37-1.88C1165.56,715.09,1165.68,714.46,1165.93,713.86z M1172.66,703.03c0.25-0.6,0.59-1.11,1.02-1.55
			c0.43-0.43,0.94-0.77,1.53-1.02c0.59-0.25,1.21-0.38,1.88-0.38c0.67,0,1.3,0.13,1.9,0.38c0.6,0.25,1.11,0.59,1.55,1.02
			c0.43,0.43,0.77,0.95,1.03,1.55c0.25,0.6,0.37,1.23,0.37,1.9c0,0.67-0.13,1.29-0.37,1.88c-0.25,0.59-0.59,1.09-1.03,1.53
			c-0.43,0.43-0.95,0.77-1.55,1.03c-0.6,0.25-1.23,0.37-1.9,0.37c-0.67,0-1.3-0.13-1.88-0.37c-0.59-0.25-1.09-0.59-1.53-1.03
			c-0.43-0.43-0.77-0.94-1.02-1.53c-0.25-0.59-0.38-1.21-0.38-1.88C1172.29,704.26,1172.41,703.63,1172.66,703.03z M1179.35,713.86
			c0.25-0.6,0.59-1.11,1.02-1.55s0.94-0.77,1.53-1.02c0.59-0.25,1.21-0.38,1.88-0.38c0.67,0,1.3,0.13,1.9,0.38
			c0.6,0.25,1.11,0.59,1.55,1.02s0.77,0.95,1.03,1.55c0.25,0.6,0.37,1.23,0.37,1.9c0,0.67-0.13,1.29-0.37,1.88
			c-0.25,0.59-0.59,1.09-1.03,1.53s-0.95,0.77-1.55,1.02c-0.6,0.25-1.23,0.38-1.9,0.38c-0.67,0-1.3-0.13-1.88-0.38
			c-0.59-0.25-1.09-0.59-1.53-1.02s-0.77-0.94-1.02-1.53c-0.25-0.59-0.38-1.21-0.38-1.88
			C1178.98,715.09,1179.1,714.46,1179.35,713.86z"/>
		<path class="st0" d="M1203.84,751.96v-25.33h8.95v29.43c0.03,0.11,0.04,0.25,0.04,0.42c0,0.61-0.12,1.19-0.36,1.73
			c-0.24,0.54-0.56,1.02-0.96,1.42c-0.4,0.4-0.89,0.72-1.44,0.96c-0.56,0.24-1.14,0.36-1.75,0.36h-19.52v-8.99H1203.84z
			 M1190,770.46c0.25-0.6,0.59-1.11,1.03-1.55c0.43-0.43,0.94-0.77,1.53-1.03c0.58-0.25,1.21-0.37,1.88-0.37
			c0.67,0,1.3,0.13,1.9,0.37c0.6,0.25,1.12,0.59,1.55,1.03c0.43,0.43,0.77,0.95,1.02,1.55c0.25,0.6,0.38,1.23,0.38,1.9
			c0,0.67-0.13,1.3-0.38,1.88c-0.25,0.59-0.59,1.09-1.02,1.53c-0.43,0.43-0.95,0.77-1.55,1.02c-0.6,0.25-1.23,0.38-1.9,0.38
			c-0.67,0-1.3-0.13-1.88-0.38c-0.59-0.25-1.09-0.59-1.53-1.02c-0.43-0.43-0.77-0.94-1.03-1.53c-0.25-0.59-0.37-1.21-0.37-1.88
			C1189.63,771.7,1189.75,771.06,1190,770.46z M1201.21,770.46c0.25-0.6,0.59-1.11,1.02-1.55c0.43-0.43,0.94-0.77,1.53-1.03
			c0.59-0.25,1.21-0.37,1.88-0.37c0.67,0,1.3,0.13,1.9,0.37c0.6,0.25,1.11,0.59,1.55,1.03c0.43,0.43,0.77,0.95,1.03,1.55
			c0.25,0.6,0.37,1.23,0.37,1.9c0,0.67-0.13,1.3-0.37,1.88c-0.25,0.59-0.59,1.09-1.03,1.53c-0.43,0.43-0.95,0.77-1.55,1.02
			c-0.6,0.25-1.23,0.38-1.9,0.38c-0.67,0-1.3-0.13-1.88-0.38c-0.59-0.25-1.09-0.59-1.53-1.02c-0.43-0.43-0.77-0.94-1.02-1.53
			c-0.25-0.59-0.38-1.21-0.38-1.88C1200.83,771.7,1200.95,771.06,1201.21,770.46z"/>
		<path class="st0" d="M1220.59,751.92h23.66c-0.14-3.12-0.49-5.75-1.05-7.88c-0.56-2.13-1.44-3.87-2.63-5.2
			c-1.39-1.62-3.46-2.78-6.21-3.49c-2.74-0.71-6.37-1.04-10.89-0.98l-0.08-8.95c2.95-0.03,5.65,0.09,8.09,0.35
			c2.44,0.27,4.63,0.71,6.58,1.32c1.95,0.61,3.69,1.41,5.23,2.38c1.53,0.97,2.88,2.13,4.05,3.47c1.92,2.23,3.32,4.9,4.2,8.01
			c0.88,3.1,1.43,6.78,1.65,11.01h5.23v8.99l-37.83-0.04V751.92z"/>
		<path class="st0" d="M1269.74,725.69c1.73,0.04,3.5,0.13,5.33,0.27s3.66,0.39,5.5,0.73c1.84,0.35,3.62,0.88,5.33,1.61
			c1.71,0.72,3.32,1.69,4.83,2.91c1.5,1.21,2.83,2.76,3.99,4.64c1.16,1.88,2.09,4.14,2.8,6.77c0.71,2.63,1.12,5.75,1.23,9.34h6.73
			v8.99h-47.87v-8.99h32.15c-0.17-3.32-0.74-6.04-1.71-8.17c-0.98-2.13-2.2-3.84-3.68-5.12c-1.48-1.28-3.12-2.21-4.93-2.78
			c-1.81-0.57-3.63-0.95-5.45-1.15c-1.83-0.19-3.6-0.28-5.31-0.27c-1.72,0.01-3.21-0.02-4.49-0.1l0.75-8.95
			C1266.41,725.56,1268.01,725.65,1269.74,725.69z"/>
		<path class="st0" d="M1312.69,751.96v-41.51h8.95v45.61c0.03,0.11,0.04,0.25,0.04,0.42c0,0.61-0.12,1.19-0.36,1.73
			c-0.24,0.54-0.56,1.02-0.98,1.42c-0.42,0.4-0.9,0.72-1.44,0.96c-0.54,0.24-1.12,0.36-1.73,0.36h-12.5v-8.99H1312.69z"/>
		<path class="st0" d="M1331.33,760.87v-50.42h8.95v50.42H1331.33z"/>
		<path class="st0" d="M1396.35,760.95c-0.69,0-1.32-0.13-1.88-0.4c-0.56-0.26-1.03-0.61-1.42-1.05c-0.39-0.43-0.69-0.94-0.9-1.52
			c-0.21-0.59-0.31-1.21-0.31-1.88l-0.08-21.86l-7.9-0.04c-1.06,0-2.07,0.21-3.03,0.63c-0.96,0.42-1.8,0.99-2.51,1.71
			c-0.71,0.72-1.27,1.57-1.69,2.53c-0.42,0.96-0.63,1.97-0.63,3.03l0.04,9.66c1.28,0.25,2.58,0.43,3.89,0.54
			c1.31,0.11,2.63,0.17,3.97,0.17c1.14,0,2.3-0.04,3.47-0.13l0.71,8.95c-0.72,0.05-1.43,0.1-2.11,0.13
			c-0.68,0.03-1.39,0.04-2.11,0.04c-2.26,0-4.53-0.14-6.81-0.42c-2.28-0.28-4.43-0.71-6.44-1.3c-1.03-0.22-1.88-0.74-2.55-1.55
			c-0.67-0.81-1-1.76-1-2.84V742.1c0-2.31,0.44-4.49,1.32-6.54c0.88-2.05,2.08-3.83,3.6-5.35c1.52-1.52,3.29-2.72,5.33-3.62
			c2.04-0.89,4.22-1.34,6.56-1.34h11.12c0.75,0,1.47,0.15,2.15,0.44c0.68,0.29,1.28,0.69,1.8,1.19c0.51,0.5,0.93,1.08,1.25,1.74
			c0.32,0.65,0.48,1.36,0.48,2.11l0.13,21.24h7.19v8.99H1396.35z M1376.25,713.78c0.25-0.6,0.59-1.12,1.02-1.55
			c0.43-0.43,0.94-0.77,1.53-1.02c0.59-0.25,1.21-0.38,1.88-0.38c0.67,0,1.3,0.13,1.9,0.38c0.6,0.25,1.12,0.59,1.55,1.02
			c0.43,0.43,0.77,0.95,1.03,1.55c0.25,0.6,0.37,1.23,0.37,1.9c0,0.67-0.13,1.3-0.37,1.88c-0.25,0.59-0.59,1.09-1.03,1.52
			c-0.43,0.43-0.95,0.77-1.55,1.03c-0.6,0.25-1.23,0.37-1.9,0.37c-0.67,0-1.3-0.12-1.88-0.37c-0.59-0.25-1.09-0.59-1.53-1.03
			c-0.43-0.43-0.77-0.94-1.02-1.52c-0.25-0.59-0.38-1.21-0.38-1.88C1375.87,715.01,1376,714.37,1376.25,713.78z M1387.45,713.78
			c0.25-0.6,0.59-1.12,1.03-1.55c0.43-0.43,0.94-0.77,1.52-1.02c0.59-0.25,1.21-0.38,1.88-0.38c0.67,0,1.3,0.13,1.9,0.38
			c0.6,0.25,1.12,0.59,1.55,1.02c0.43,0.43,0.77,0.95,1.02,1.55c0.25,0.6,0.38,1.23,0.38,1.9c0,0.67-0.13,1.3-0.38,1.88
			c-0.25,0.59-0.59,1.09-1.02,1.52c-0.43,0.43-0.95,0.77-1.55,1.03c-0.6,0.25-1.23,0.37-1.9,0.37c-0.67,0-1.3-0.12-1.88-0.37
			c-0.58-0.25-1.09-0.59-1.52-1.03c-0.43-0.43-0.77-0.94-1.03-1.52c-0.25-0.59-0.37-1.21-0.37-1.88
			C1387.08,715.01,1387.2,714.37,1387.45,713.78z"/>
		<path class="st0" d="M1422,751.96v-25.33h8.95v29.43c0.03,0.11,0.04,0.25,0.04,0.42c0,0.61-0.12,1.19-0.36,1.73
			c-0.24,0.54-0.56,1.02-0.96,1.42c-0.4,0.4-0.89,0.72-1.44,0.96c-0.56,0.24-1.14,0.36-1.75,0.36h-19.52v-8.99H1422z
			 M1408.17,770.46c0.25-0.6,0.59-1.11,1.03-1.55c0.43-0.43,0.94-0.77,1.52-1.03c0.59-0.25,1.21-0.37,1.88-0.37
			c0.67,0,1.3,0.13,1.9,0.37c0.6,0.25,1.12,0.59,1.55,1.03c0.43,0.43,0.77,0.95,1.02,1.55c0.25,0.6,0.38,1.23,0.38,1.9
			c0,0.67-0.13,1.3-0.38,1.88c-0.25,0.59-0.59,1.09-1.02,1.53c-0.43,0.43-0.95,0.77-1.55,1.02c-0.6,0.25-1.23,0.38-1.9,0.38
			c-0.67,0-1.3-0.13-1.88-0.38c-0.58-0.25-1.09-0.59-1.52-1.02c-0.43-0.43-0.77-0.94-1.03-1.53c-0.25-0.59-0.37-1.21-0.37-1.88
			C1407.79,771.7,1407.92,771.06,1408.17,770.46z M1419.37,770.46c0.25-0.6,0.59-1.11,1.02-1.55c0.43-0.43,0.94-0.77,1.53-1.03
			c0.59-0.25,1.21-0.37,1.88-0.37c0.67,0,1.3,0.13,1.9,0.37c0.6,0.25,1.11,0.59,1.55,1.03c0.43,0.43,0.77,0.95,1.03,1.55
			c0.25,0.6,0.37,1.23,0.37,1.9c0,0.67-0.13,1.3-0.37,1.88c-0.25,0.59-0.59,1.09-1.03,1.53c-0.43,0.43-0.95,0.77-1.55,1.02
			c-0.6,0.25-1.23,0.38-1.9,0.38c-0.67,0-1.3-0.13-1.88-0.38c-0.59-0.25-1.09-0.59-1.53-1.02c-0.43-0.43-0.77-0.94-1.02-1.53
			c-0.25-0.59-0.38-1.21-0.38-1.88C1419,771.7,1419.12,771.06,1419.37,770.46z"/>
		<path class="st0" d="M1458.68,753.66c-0.15,2.36-0.47,4.7-0.94,7.04c-0.59,2.9-1.44,5.62-2.57,8.15
			c-1.13,2.54-2.63,4.74-4.49,6.63c-1.87,1.88-4.14,3.36-6.83,4.43c-2.69,1.07-5.9,1.61-9.64,1.61v-8.99c2.4,0,4.45-0.36,6.17-1.07
			c1.72-0.71,3.15-1.69,4.31-2.95c1.16-1.26,2.08-2.72,2.78-4.41c0.7-1.69,1.22-3.5,1.57-5.43c0.35-1.94,0.58-3.96,0.69-6.06
			c0.11-2.1,0.17-4.19,0.17-6.25c0-2.78-0.06-5.51-0.17-8.17c-0.11-2.66-0.17-5.07-0.17-7.21h8.95c0,2.23,0.07,4.68,0.21,7.34
			s0.21,5.45,0.21,8.38C1458.91,748.98,1458.83,751.3,1458.68,753.66z"/>
		<path class="st0" d="M1469.64,760.95c-0.61,0-1.19-0.12-1.73-0.36c-0.54-0.24-1.02-0.56-1.44-0.96c-0.42-0.4-0.75-0.88-0.98-1.42
			c-0.24-0.54-0.36-1.12-0.36-1.73c0-0.17,0.01-0.31,0.04-0.42v-45.61h8.95v41.51h8.24v8.99H1469.64z"/>
		<path class="st0" d="M1481.33,751.96h6.9v-10.2c0-1.28,0.19-2.59,0.59-3.93c0.39-1.34,0.95-2.63,1.67-3.89
			c0.72-1.25,1.59-2.42,2.61-3.51c1.02-1.09,2.15-2.02,3.39-2.8c1.24-0.78,2.57-1.38,3.99-1.82c1.42-0.43,2.91-0.62,4.47-0.57
			l12.67,0.17c0.61,0,1.19,0.12,1.73,0.35c0.54,0.24,1.02,0.56,1.42,0.96c0.4,0.4,0.72,0.87,0.96,1.4c0.24,0.53,0.36,1.1,0.36,1.71
			v22.12h6.31v8.99h-47.07V751.96z M1513.11,751.96v-17.64c-2.09-0.03-3.68-0.05-4.78-0.06c-1.1-0.02-1.91-0.03-2.43-0.04
			c-0.51-0.01-0.83-0.02-0.94-0.02h-0.21c-0.95,0-1.87,0.22-2.78,0.65c-0.91,0.43-1.72,1-2.43,1.69c-0.71,0.7-1.27,1.5-1.69,2.4
			c-0.42,0.91-0.63,1.83-0.63,2.78v10.24H1513.11z"/>
		<path class="st0" d="M1539.26,751.96l-4.85-7.44c-0.81-1.25-1.4-2.5-1.78-3.74c-0.37-1.24-0.56-2.45-0.56-3.61
			c0-1.53,0.31-3.01,0.94-4.43c0.63-1.42,1.52-2.69,2.69-3.81c1.17-1.11,2.58-2.01,4.22-2.68c1.64-0.67,3.5-1,5.56-1h9.28
			c1.84,0,3.57,0.29,5.2,0.88c1.63,0.59,3.06,1.41,4.28,2.49c1.23,1.07,2.2,2.35,2.91,3.82c0.71,1.48,1.07,3.11,1.07,4.89
			c0,2.37-0.79,4.77-2.38,7.19l-4.81,7.44h11.87v8.99h-45.61v-8.99H1539.26z M1550.33,751.96l8.03-12.33
			c0.59-0.92,0.88-1.74,0.88-2.46c0-0.5-0.13-0.94-0.4-1.3c-0.26-0.36-0.61-0.67-1.05-0.92c-0.43-0.25-0.91-0.44-1.44-0.57
			c-0.53-0.12-1.06-0.19-1.59-0.19h-9.28c-0.59,0-1.14,0.08-1.67,0.23c-0.53,0.15-1,0.36-1.42,0.63c-0.42,0.27-0.74,0.58-0.98,0.94
			c-0.24,0.36-0.36,0.75-0.36,1.17c0,0.78,0.28,1.6,0.84,2.46l8.03,12.33H1550.33z"/>
		<path class="st0" d="M1572.09,751.96h6.9v-10.2c0-1.28,0.19-2.59,0.59-3.93c0.39-1.34,0.95-2.63,1.67-3.89
			c0.72-1.25,1.59-2.42,2.61-3.51c1.02-1.09,2.15-2.02,3.39-2.8c1.24-0.78,2.57-1.38,3.99-1.82c1.42-0.43,2.91-0.62,4.47-0.57
			l12.67,0.17c0.61,0,1.19,0.12,1.73,0.35c0.54,0.24,1.02,0.56,1.42,0.96c0.4,0.4,0.72,0.87,0.96,1.4c0.24,0.53,0.36,1.1,0.36,1.71
			v22.12h6.31v8.99h-47.07V751.96z M1603.86,751.96v-17.64c-2.09-0.03-3.68-0.05-4.78-0.06c-1.1-0.02-1.91-0.03-2.43-0.04
			c-0.51-0.01-0.83-0.02-0.94-0.02h-0.21c-0.95,0-1.87,0.22-2.78,0.65c-0.91,0.43-1.72,1-2.43,1.69c-0.71,0.7-1.27,1.5-1.69,2.4
			c-0.42,0.91-0.63,1.83-0.63,2.78v10.24H1603.86z"/>
		<path class="st0" d="M1626.33,751.96v-41.51h8.95v45.61c0.03,0.11,0.04,0.25,0.04,0.42c0,0.61-0.12,1.19-0.36,1.73
			c-0.24,0.54-0.56,1.02-0.98,1.42c-0.42,0.4-0.9,0.72-1.44,0.96c-0.54,0.24-1.12,0.36-1.73,0.36h-12.5v-8.99H1626.33z"/>
		<path class="st0" d="M1644.97,760.87v-50.42h8.95v50.42H1644.97z"/>
		<path class="st0" d="M1710,760.95c-0.7,0-1.32-0.13-1.88-0.4c-0.56-0.26-1.03-0.61-1.42-1.05c-0.39-0.43-0.69-0.94-0.9-1.52
			c-0.21-0.59-0.31-1.21-0.31-1.88l-0.08-21.86l-7.9-0.04c-1.06,0-2.07,0.21-3.03,0.63c-0.96,0.42-1.8,0.99-2.51,1.71
			c-0.71,0.72-1.27,1.57-1.69,2.53c-0.42,0.96-0.63,1.97-0.63,3.03l0.04,9.66c1.28,0.25,2.58,0.43,3.89,0.54
			c1.31,0.11,2.63,0.17,3.97,0.17c1.14,0,2.3-0.04,3.47-0.13l0.71,8.95c-0.72,0.05-1.43,0.1-2.11,0.13
			c-0.68,0.03-1.39,0.04-2.11,0.04c-2.26,0-4.53-0.14-6.81-0.42c-2.28-0.28-4.43-0.71-6.44-1.3c-1.03-0.22-1.88-0.74-2.55-1.55
			c-0.67-0.81-1-1.76-1-2.84V742.1c0-2.31,0.44-4.49,1.32-6.54c0.88-2.05,2.08-3.83,3.6-5.35c1.52-1.52,3.29-2.72,5.33-3.62
			c2.04-0.89,4.22-1.34,6.56-1.34h11.12c0.75,0,1.47,0.15,2.15,0.44c0.68,0.29,1.28,0.69,1.8,1.19c0.51,0.5,0.93,1.08,1.25,1.74
			c0.32,0.65,0.48,1.36,0.48,2.11l0.13,21.24h7.19v8.99H1710z M1689.9,713.78c0.25-0.6,0.59-1.12,1.02-1.55
			c0.43-0.43,0.94-0.77,1.53-1.02c0.59-0.25,1.21-0.38,1.88-0.38c0.67,0,1.3,0.13,1.9,0.38c0.6,0.25,1.12,0.59,1.55,1.02
			c0.43,0.43,0.77,0.95,1.03,1.55c0.25,0.6,0.37,1.23,0.37,1.9c0,0.67-0.12,1.3-0.37,1.88c-0.25,0.59-0.59,1.09-1.03,1.52
			c-0.43,0.43-0.95,0.77-1.55,1.03c-0.6,0.25-1.23,0.37-1.9,0.37c-0.67,0-1.3-0.12-1.88-0.37c-0.59-0.25-1.09-0.59-1.53-1.03
			c-0.43-0.43-0.77-0.94-1.02-1.52c-0.25-0.59-0.38-1.21-0.38-1.88C1689.52,715.01,1689.64,714.37,1689.9,713.78z M1701.1,713.78
			c0.25-0.6,0.59-1.12,1.03-1.55c0.43-0.43,0.94-0.77,1.52-1.02c0.59-0.25,1.21-0.38,1.88-0.38c0.67,0,1.3,0.13,1.9,0.38
			c0.6,0.25,1.12,0.59,1.55,1.02c0.43,0.43,0.77,0.95,1.02,1.55c0.25,0.6,0.38,1.23,0.38,1.9c0,0.67-0.13,1.3-0.38,1.88
			c-0.25,0.59-0.59,1.09-1.02,1.52c-0.43,0.43-0.95,0.77-1.55,1.03c-0.6,0.25-1.23,0.37-1.9,0.37c-0.67,0-1.3-0.12-1.88-0.37
			c-0.59-0.25-1.09-0.59-1.52-1.03c-0.43-0.43-0.77-0.94-1.03-1.52c-0.25-0.59-0.37-1.21-0.37-1.88
			C1700.72,715.01,1700.85,714.37,1701.1,713.78z"/>
		<path class="st0" d="M1760.69,751.96v-4.35c0-1.53-0.05-2.72-0.15-3.55c-0.1-0.84-0.32-1.46-0.67-1.86s-0.88-0.65-1.59-0.75
			c-0.71-0.1-1.68-0.15-2.91-0.15l-21.7-0.08c-1.73,0-3.11-0.36-4.16-1.09c-1.05-0.72-1.78-1.67-2.22-2.82
			c-0.43-1.16-0.57-2.45-0.42-3.87c0.15-1.42,0.58-2.85,1.27-4.26c1.5-3.04,3.5-5.71,6-8c2.49-2.3,5.26-4.21,8.3-5.73
			c3.04-1.52,6.24-2.63,9.59-3.32c3.36-0.7,6.64-0.99,9.85-0.88l-0.29,8.95c-2.31-0.08-4.7,0.11-7.17,0.59
			c-2.46,0.48-4.83,1.22-7.09,2.24c-2.26,1.02-4.32,2.3-6.19,3.85c-1.87,1.55-3.36,3.36-4.48,5.45h15.84c2.23,0,4.2,0.04,5.91,0.1
			c1.72,0.07,3.21,0.24,4.47,0.52c1.27,0.28,2.34,0.71,3.2,1.3c0.86,0.59,1.56,1.39,2.09,2.4c0.53,1.01,0.91,2.3,1.15,3.84
			c0.24,1.55,0.36,3.44,0.36,5.67v2.55c0,0.81-0.01,1.62-0.02,2.43c-0.01,0.81-0.02,1.66-0.02,2.55v2.8c0,0.61-0.12,1.19-0.36,1.73
			c-0.24,0.54-0.56,1.02-0.96,1.42c-0.4,0.4-0.88,0.72-1.42,0.96c-0.54,0.24-1.12,0.36-1.73,0.36h-45.11v-8.99H1760.69z"/>
		<path class="st0" d="M1796.41,738.31c0.14,2.66,0.21,5.45,0.21,8.38c0,1.76-0.04,3.51-0.12,5.27h6.19v8.99h-7.32
			c-0.61,2.87-1.48,5.56-2.61,8.07c-1.13,2.51-2.62,4.69-4.47,6.54c-1.85,1.85-4.12,3.31-6.79,4.37c-2.68,1.06-5.87,1.59-9.57,1.59
			v-8.99c2.4,0,4.45-0.36,6.17-1.07c1.72-0.71,3.15-1.69,4.31-2.95c1.16-1.26,2.08-2.72,2.78-4.41c0.7-1.69,1.22-3.5,1.57-5.43
			c0.35-1.94,0.58-3.96,0.69-6.06c0.11-2.1,0.17-4.19,0.17-6.25c0-2.78-0.06-5.51-0.17-8.17c-0.11-2.66-0.17-5.07-0.17-7.21h8.95
			C1796.2,733.21,1796.27,735.65,1796.41,738.31z"/>
		<path class="st0" d="M1835.53,757.9c-0.31,0.89-0.84,1.62-1.61,2.19c-0.77,0.57-1.65,0.86-2.65,0.86h-14.05v-3.05
			c-0.31,0.89-0.85,1.62-1.63,2.19c-0.78,0.57-1.66,0.86-2.63,0.86h-11.33v-8.99h6.81v-25.33h8.99v25.33h9.36v-25.33h8.95v25.33
			h9.41v-25.33h8.95v25.33h6.77v8.99h-25.33V757.9z M1820.11,713.78c0.25-0.6,0.59-1.12,1.02-1.55c0.43-0.43,0.94-0.77,1.53-1.02
			c0.59-0.25,1.21-0.38,1.88-0.38c0.67,0,1.3,0.13,1.9,0.38c0.6,0.25,1.11,0.59,1.55,1.02c0.43,0.43,0.77,0.95,1.02,1.55
			c0.25,0.6,0.38,1.23,0.38,1.9c0,0.67-0.13,1.3-0.38,1.88c-0.25,0.59-0.59,1.09-1.02,1.52c-0.43,0.43-0.95,0.77-1.55,1.03
			c-0.6,0.25-1.23,0.37-1.9,0.37c-0.67,0-1.29-0.12-1.88-0.37c-0.59-0.25-1.09-0.59-1.53-1.03c-0.43-0.43-0.77-0.94-1.02-1.52
			c-0.25-0.59-0.38-1.21-0.38-1.88C1819.73,715.01,1819.85,714.37,1820.11,713.78z M1826.83,702.95c0.25-0.6,0.59-1.12,1.02-1.55
			c0.43-0.43,0.94-0.77,1.53-1.03c0.59-0.25,1.21-0.37,1.88-0.37c0.67,0,1.3,0.12,1.9,0.37c0.6,0.25,1.11,0.59,1.55,1.03
			c0.43,0.43,0.77,0.95,1.03,1.55c0.25,0.6,0.37,1.23,0.37,1.9c0,0.67-0.13,1.3-0.37,1.88c-0.25,0.59-0.59,1.09-1.03,1.53
			s-0.95,0.77-1.55,1.02c-0.6,0.25-1.23,0.38-1.9,0.38c-0.67,0-1.3-0.13-1.88-0.38c-0.59-0.25-1.09-0.59-1.53-1.02
			s-0.77-0.94-1.02-1.53c-0.25-0.59-0.38-1.21-0.38-1.88C1826.46,704.18,1826.58,703.55,1826.83,702.95z M1833.52,713.78
			c0.25-0.6,0.59-1.12,1.02-1.55c0.43-0.43,0.94-0.77,1.53-1.02c0.59-0.25,1.21-0.38,1.88-0.38c0.67,0,1.3,0.13,1.9,0.38
			c0.6,0.25,1.11,0.59,1.55,1.02c0.43,0.43,0.77,0.95,1.03,1.55c0.25,0.6,0.37,1.23,0.37,1.9c0,0.67-0.13,1.3-0.37,1.88
			c-0.25,0.59-0.59,1.09-1.03,1.52c-0.43,0.43-0.95,0.77-1.55,1.03c-0.6,0.25-1.23,0.37-1.9,0.37c-0.67,0-1.3-0.12-1.88-0.37
			c-0.59-0.25-1.09-0.59-1.53-1.03c-0.43-0.43-0.77-0.94-1.02-1.52c-0.25-0.59-0.38-1.21-0.38-1.88
			C1833.15,715.01,1833.27,714.37,1833.52,713.78z"/>
		<path class="st0" d="M1868.15,751.96v-41.51h8.95v45.61c0.03,0.11,0.04,0.25,0.04,0.42c0,0.61-0.12,1.19-0.36,1.73
			c-0.24,0.54-0.56,1.02-0.98,1.42c-0.42,0.4-0.9,0.72-1.44,0.96c-0.54,0.24-1.12,0.36-1.73,0.36h-12.5v-8.99H1868.15z"/>
		<path class="st0" d="M1886.79,760.87v-50.42h8.95v50.42H1886.79z"/>
	</g>
	<g>
		<g class="st1">
			<g>
				<path class="st0" d="M240.36,697.29c-0.63,0-1.26-0.2-1.79-0.6L65.94,566.8c-0.75-0.56-1.19-1.44-1.19-2.38
					c0-0.93,0.44-1.82,1.19-2.38l170.53-128.31l-47.5-82.28l5.16-2.98l47.5,82.27L438,347.23c0.86-0.36,1.85-0.3,2.65,0.16
					c0.81,0.47,1.35,1.29,1.47,2.22l26.18,214.45c0.14,1.12-0.37,2.22-1.31,2.84c-0.94,0.62-2.15,0.66-3.13,0.09L243.34,439.68
					v254.63c0,1.13-0.64,2.16-1.65,2.66C241.27,697.19,240.82,697.29,240.36,697.29z M72.68,564.42l164.7,123.93V440.49
					L72.68,564.42z M247.02,434.93l214.65,123.93l-24.97-204.6L247.02,434.93z"/>
			</g>
		</g>
		<g>
			<g>
				<polygon class="st2" points="390.35,434.53 165.37,564.42 390.35,694.32 				"/>
			</g>
			<g>
				<path class="st3" d="M390.35,697.29c-0.51,0-1.03-0.13-1.49-0.4L163.88,567c-0.92-0.53-1.49-1.51-1.49-2.58
					c0-1.06,0.57-2.05,1.49-2.58l224.98-129.89c0.92-0.53,2.06-0.53,2.98,0c0.92,0.53,1.49,1.52,1.49,2.58v259.79
					c0,1.06-0.57,2.05-1.49,2.58C391.38,697.16,390.87,697.29,390.35,697.29z M171.32,564.42l216.05,124.74V439.68L171.32,564.42z"
					/>
			</g>
		</g>
		<g>
			<g>
				<polygon class="st4" points="562.98,564.42 390.35,694.32 439.17,778.87 				"/>
			</g>
			<g>
				<path class="st0" d="M439.17,781.85c-1.06,0-2.05-0.57-2.58-1.49l-48.82-84.56c-0.75-1.3-0.41-2.96,0.79-3.87l172.63-129.89
					c1.13-0.85,2.7-0.79,3.76,0.15s1.31,2.49,0.61,3.72L441.75,780.36C441.22,781.28,440.23,781.85,439.17,781.85z M394.25,695.11
					l44.92,77.81L553.1,575.58L394.25,695.11z"/>
			</g>
		</g>
		<g>
			<g>
				<polygon class="st5" points="390.35,694.32 390.35,434.53 562.98,564.42 				"/>
			</g>
			<g>
				<path class="st0" d="M390.35,697.29c-0.45,0-0.91-0.1-1.33-0.31c-1.01-0.5-1.65-1.54-1.65-2.66V434.53
					c0-1.13,0.64-2.16,1.65-2.66c1.01-0.51,2.22-0.39,3.12,0.29l172.63,129.89c0.75,0.56,1.19,1.44,1.19,2.38
					c0,0.93-0.44,1.82-1.19,2.38L392.14,696.7C391.62,697.09,390.99,697.29,390.35,697.29z M393.33,440.49v247.86l164.7-123.93
					L393.33,440.49z"/>
			</g>
		</g>
		<g>
			<g>
				<polygon class="st6" points="165.37,564.42 390.35,694.32 191.55,778.87 				"/>
			</g>
			<g>
				<path class="st0" d="M191.55,781.85c-0.52,0-1.03-0.13-1.49-0.4c-0.81-0.47-1.35-1.29-1.47-2.22l-26.18-214.45
					c-0.14-1.12,0.37-2.22,1.31-2.84c0.94-0.62,2.15-0.66,3.13-0.09l224.98,129.89c0.98,0.57,1.55,1.63,1.48,2.76
					c-0.07,1.12-0.77,2.12-1.81,2.56l-198.81,84.56C192.34,781.77,191.94,781.85,191.55,781.85z M169.05,569.99l24.97,204.6
					l189.68-80.67L169.05,569.99z"/>
			</g>
		</g>
		<g>
			<g>
				<g>
					
						<rect x="180.08" y="337.04" transform="matrix(0.3914 -0.9202 0.9202 0.3914 -207.803 376.6419)" class="st7" width="1.52" height="16.77"/>
				</g>
				<g>
					
						<rect x="165.52" y="335.03" transform="matrix(0.3915 -0.9202 0.9202 0.3915 -210.9679 359.4348)" class="st7" width="1.52" height="8.38"/>
				</g>
				<g>
					
						<rect x="156.74" y="333.4" transform="matrix(0.3916 -0.9202 0.9202 0.3916 -212.875 349.0559)" class="st7" width="1.52" height="4.19"/>
				</g>
				<g>
					
						<rect x="150.86" y="331.94" transform="matrix(0.3914 -0.9202 0.9202 0.3914 -214.1511 342.1823)" class="st7" width="1.52" height="2.1"/>
				</g>
				<g>
					
						<rect x="146.42" y="330.58" transform="matrix(0.3914 -0.9202 0.9202 0.3914 -215.1147 336.9524)" class="st7" width="1.52" height="1.05"/>
				</g>
				<g>
					
						<rect x="437.43" y="340.89" transform="matrix(0.5003 -0.8659 0.8659 0.5003 -73.9552 555.1531)" class="st7" width="13.09" height="1.52"/>
				</g>
				<g>
					
						<rect x="447.15" y="329.73" transform="matrix(0.5003 -0.8659 0.8659 0.5003 -61.0718 555.1566)" class="st7" width="6.55" height="1.52"/>
				</g>
				<g>
					
						<rect x="452.77" y="322.82" transform="matrix(0.4992 -0.8665 0.8665 0.4992 -52.818 555.7662)" class="st7" width="3.27" height="1.52"/>
				</g>
				<g>
					
						<rect x="456.35" y="318.04" transform="matrix(0.4992 -0.8665 0.8665 0.4992 -47.2908 555.7639)" class="st7" width="1.64" height="1.52"/>
				</g>
				<g>
					<rect x="443.13" y="349.21" class="st0" width="20.44" height="1.52"/>
				</g>
				<g>
					<rect x="467.53" y="349.21" class="st0" width="10.22" height="1.52"/>
				</g>
				<g>
					<rect x="481.71" y="349.21" class="st0" width="5.11" height="1.52"/>
				</g>
				<g>
					<rect x="490.78" y="349.21" class="st0" width="2.55" height="1.52"/>
				</g>
				<g>
					<rect x="497.3" y="349.21" class="st0" width="1.28" height="1.52"/>
				</g>
				<g>
					<rect x="175.87" y="349.21" class="st0" width="13.13" height="1.52"/>
				</g>
				<g>
					<rect x="166.76" y="349.21" class="st0" width="6.56" height="1.52"/>
				</g>
				<g>
					<rect x="160.94" y="349.21" class="st0" width="3.28" height="1.52"/>
				</g>
				<g>
					<rect x="156.75" y="349.21" class="st0" width="1.64" height="1.52"/>
				</g>
				<g>
					<rect x="153.39" y="349.21" class="st0" width="0.82" height="1.52"/>
				</g>
			</g>
			<g>
				<g>
					<path class="st0" d="M390.35,437.51c-0.39,0-0.78-0.08-1.16-0.24l-198.81-84.56c-1.3-0.55-2.03-1.95-1.75-3.33
						c0.28-1.39,1.5-2.38,2.92-2.38h247.62c1.06,0,2.05,0.57,2.58,1.49c0.53,0.92,0.53,2.06,0,2.98l-48.82,84.56
						C392.38,436.96,391.39,437.51,390.35,437.51z M206.15,352.95l182.94,77.81l44.92-77.81H206.15z"/>
				</g>
			</g>
		</g>
		<g>
			<g>
				<g>
					
						<rect x="184.57" y="337.67" transform="matrix(0.1202 -0.9928 0.9928 0.1202 -166.2085 489.308)" class="st0" width="16.77" height="1.52"/>
				</g>
				<g>
					
						<rect x="190.68" y="321.96" transform="matrix(0.1202 -0.9928 0.9928 0.1202 -148.9279 477.3919)" class="st0" width="8.38" height="1.52"/>
				</g>
				<g>
					
						<rect x="193.93" y="312.49" transform="matrix(0.1202 -0.9928 0.9928 0.1202 -138.5126 470.209)" class="st0" width="4.19" height="1.52"/>
				</g>
				<g>
					
						<rect x="195.75" y="306.15" transform="matrix(0.1202 -0.9928 0.9928 0.1202 -131.5328 465.3952)" class="st0" width="2.1" height="1.52"/>
				</g>
				<g>
					
						<rect x="196.86" y="301.36" transform="matrix(0.1226 -0.9925 0.9925 0.1226 -126.6475 460.9923)" class="st0" width="1.05" height="1.52"/>
				</g>
				<g>
					<rect x="51.57" y="563.67" class="st0" width="13.09" height="1.52"/>
				</g>
				<g>
					<rect x="41.96" y="563.67" class="st0" width="6.54" height="1.52"/>
				</g>
				<g>
					<rect x="35.62" y="563.67" class="st0" width="3.27" height="1.52"/>
				</g>
				<g>
					<rect x="30.91" y="563.67" class="st7" width="1.64" height="1.52"/>
				</g>
				<g>
					
						<rect x="50.42" y="575.94" transform="matrix(0.4998 -0.8662 0.8662 0.4998 -469.1842 341.0185)" class="st0" width="20.44" height="1.52"/>
				</g>
				<g>
					
						<rect x="45.89" y="592.65" transform="matrix(0.4992 -0.8665 0.8665 0.4992 -488.6293 341.345)" class="st0" width="10.22" height="1.52"/>
				</g>
				<g>
					
						<rect x="42.63" y="602.72" transform="matrix(0.4992 -0.8665 0.8665 0.4992 -500.2631 341.3502)" class="st0" width="5.11" height="1.52"/>
				</g>
				<g>
					
						<rect x="40.01" y="609.47" transform="matrix(0.5003 -0.8659 0.8659 0.5003 -507.7387 340.6938)" class="st0" width="2.56" height="1.52"/>
				</g>
				<g>
					
						<rect x="37.71" y="614.55" transform="matrix(0.4992 -0.8665 0.8665 0.4992 -513.9432 341.3557)" class="st0" width="1.28" height="1.52"/>
				</g>
				<g>
					
						<rect x="189.53" y="341.33" transform="matrix(0.5003 -0.8659 0.8659 0.5003 -198.2044 340.7428)" class="st0" width="13.13" height="1.52"/>
				</g>
				<g>
					
						<rect x="199.01" y="330.6" transform="matrix(0.5003 -0.8659 0.8659 0.5003 -185.8178 340.7462)" class="st0" width="6.56" height="1.52"/>
				</g>
				<g>
					
						<rect x="204.39" y="324.13" transform="matrix(0.5003 -0.8659 0.8659 0.5003 -178.3529 340.7465)" class="st0" width="3.28" height="1.52"/>
				</g>
				<g>
					
						<rect x="207.71" y="319.79" transform="matrix(0.4992 -0.8665 0.8665 0.4992 -173.3251 341.2052)" class="st0" width="1.64" height="1.52"/>
				</g>
				<g>
					
						<rect x="210.01" y="316.52" transform="matrix(0.4992 -0.8665 0.8665 0.4992 -169.5467 341.204)" class="st0" width="0.82" height="1.52"/>
				</g>
			</g>
			<g>
				<g>
					<path class="st0" d="M165.37,567.4H67.73c-1.06,0-2.05-0.57-2.58-1.49c-0.53-0.92-0.53-2.06,0-2.98l123.81-214.45
						c0.71-1.23,2.18-1.79,3.52-1.33c1.34,0.45,2.18,1.78,2.01,3.18l-26.18,214.45C168.14,566.28,166.87,567.4,165.37,567.4z
						 M72.89,561.45h89.85l24.09-197.34L72.89,561.45z"/>
				</g>
			</g>
		</g>
		<g>
			<g>
				<g>
					
						<rect x="437.43" y="340.89" transform="matrix(0.5003 -0.8659 0.8659 0.5003 -73.9552 555.1531)" class="st0" width="13.09" height="1.52"/>
				</g>
				<g>
					
						<rect x="447.15" y="329.73" transform="matrix(0.5003 -0.8659 0.8659 0.5003 -61.0718 555.1566)" class="st0" width="6.55" height="1.52"/>
				</g>
				<g>
					
						<rect x="452.77" y="322.82" transform="matrix(0.4992 -0.8665 0.8665 0.4992 -52.818 555.7662)" class="st0" width="3.27" height="1.52"/>
				</g>
				<g>
					
						<rect x="456.35" y="318.04" transform="matrix(0.4992 -0.8665 0.8665 0.4992 -47.2908 555.7639)" class="st0" width="1.64" height="1.52"/>
				</g>
				<g>
					
						<rect x="431.32" y="327.47" transform="matrix(0.866 -0.5 0.5 0.866 -110.963 261.3107)" class="st0" width="1.52" height="20.44"/>
				</g>
				<g>
					
						<rect x="421.68" y="315.88" transform="matrix(0.8661 -0.4999 0.4999 0.8661 -103.8937 254.1849)" class="st0" width="1.52" height="10.22"/>
				</g>
				<g>
					
						<rect x="415.87" y="308.37" transform="matrix(0.866 -0.5001 0.5001 0.866 -99.6499 250.0228)" class="st0" width="1.52" height="5.11"/>
				</g>
				<g>
					
						<rect x="411.97" y="302.9" transform="matrix(0.8661 -0.4998 0.4998 0.8661 -96.7799 247.0125)" class="st0" width="1.52" height="2.55"/>
				</g>
				<g>
					
						<rect x="409.03" y="298.44" transform="matrix(0.8663 -0.4995 0.4995 0.8663 -94.61 244.683)" class="st0" width="1.52" height="1.28"/>
				</g>
			</g>
			<g>
				<g>
					<path class="st0" d="M562.98,567.4c-0.63,0-1.26-0.2-1.79-0.6L388.56,436.91c-1.2-0.9-1.54-2.56-0.79-3.87l48.82-84.56
						c1.06-1.84,4.09-1.84,5.16,0l123.81,214.45c0.71,1.23,0.45,2.78-0.61,3.72C564.39,567.15,563.69,567.4,562.98,567.4z
						 M394.25,433.74L553.1,553.26L439.17,355.93L394.25,433.74z"/>
				</g>
			</g>
		</g>
		<g>
			<g>
				<g>
					<rect x="47.72" y="563.67" class="st0" width="16.77" height="1.52"/>
				</g>
				<g>
					<rect x="36.08" y="563.67" class="st0" width="8.38" height="1.52"/>
				</g>
				<g>
					<rect x="28.64" y="563.67" class="st0" width="4.19" height="1.52"/>
				</g>
				<g>
					<rect x="23.3" y="563.67" class="st0" width="2.1" height="1.52"/>
				</g>
				<g>
					<rect x="19" y="563.67" class="st0" width="1.05" height="1.52"/>
				</g>
				<g>
					
						<rect x="62.42" y="549.97" transform="matrix(0.8661 -0.4999 0.4999 0.8661 -269.7299 106.0966)" class="st0" width="1.52" height="13.13"/>
				</g>
				<g>
					
						<rect x="56.22" y="542.52" transform="matrix(0.8659 -0.5002 0.5002 0.8659 -265.3556 101.6792)" class="st0" width="1.52" height="6.57"/>
				</g>
				<g>
					
						<rect x="52.49" y="537.7" transform="matrix(0.8663 -0.4995 0.4995 0.8663 -262.3044 98.7176)" class="st0" width="1.52" height="3.28"/>
				</g>
				<g>
					
						<rect x="49.99" y="534.18" transform="matrix(0.8662 -0.4997 0.4997 0.8662 -260.5627 96.9506)" class="st0" width="1.52" height="1.64"/>
				</g>
				<g>
					
						<rect x="48.1" y="531.33" transform="matrix(0.8656 -0.5007 0.5007 0.8656 -259.6665 95.9133)" class="st7" width="1.52" height="0.82"/>
				</g>
			</g>
			<g>
				<g>
					<path class="st0" d="M191.55,781.85c-1.04,0-2.04-0.55-2.58-1.49L65.15,565.91c-0.53-0.92-0.53-2.06,0-2.98
						c0.53-0.92,1.52-1.49,2.58-1.49h97.64c1.5,0,2.77,1.12,2.95,2.61l26.18,214.45c0.17,1.4-0.67,2.74-2.01,3.18
						C192.18,781.8,191.86,781.85,191.55,781.85z M72.89,567.4l113.93,197.34L162.73,567.4H72.89z"/>
				</g>
			</g>
		</g>
		<g>
			<g>
				<g>
					
						<rect x="180.08" y="337.04" transform="matrix(0.3914 -0.9202 0.9202 0.3914 -207.803 376.6419)" class="st0" width="1.52" height="16.77"/>
				</g>
				<g>
					
						<rect x="165.52" y="335.03" transform="matrix(0.3915 -0.9202 0.9202 0.3915 -210.9679 359.4348)" class="st0" width="1.52" height="8.38"/>
				</g>
				<g>
					
						<rect x="156.74" y="333.4" transform="matrix(0.3916 -0.9202 0.9202 0.3916 -212.875 349.0559)" class="st0" width="1.52" height="4.19"/>
				</g>
				<g>
					
						<rect x="150.86" y="331.94" transform="matrix(0.3914 -0.9202 0.9202 0.3914 -214.1511 342.1823)" class="st0" width="1.52" height="2.1"/>
				</g>
				<g>
					
						<rect x="146.42" y="330.58" transform="matrix(0.3914 -0.9202 0.9202 0.3914 -215.1147 336.9524)" class="st0" width="1.52" height="1.05"/>
				</g>
				<g>
					
						<rect x="186.08" y="340.17" transform="matrix(0.1202 -0.9928 0.9928 0.1202 -168.9663 491.2091)" class="st0" width="13.13" height="1.52"/>
				</g>
				<g>
					
						<rect x="190.87" y="327.87" transform="matrix(0.1202 -0.9928 0.9928 0.1202 -155.4356 481.8777)" class="st0" width="6.56" height="1.52"/>
				</g>
				<g>
					
						<rect x="193.41" y="320.46" transform="matrix(0.1202 -0.9928 0.9928 0.1202 -147.282 476.2549)" class="st0" width="3.28" height="1.52"/>
				</g>
				<g>
					
						<rect x="194.84" y="315.49" transform="matrix(0.1202 -0.9928 0.9928 0.1202 -141.8165 472.4858)" class="st0" width="1.64" height="1.52"/>
				</g>
				<g>
					
						<rect x="195.71" y="311.75" transform="matrix(0.1226 -0.9925 0.9925 0.1226 -138.0676 468.8465)" class="st0" width="0.82" height="1.52"/>
				</g>
			</g>
			<g>
				<g>
					<path class="st0" d="M165.37,567.4c-0.57,0-1.15-0.16-1.64-0.49c-0.94-0.62-1.45-1.73-1.31-2.84l26.18-214.45
						c0.11-0.93,0.66-1.75,1.47-2.22c0.81-0.46,1.79-0.52,2.65-0.16l198.81,84.56c1.04,0.44,1.74,1.43,1.81,2.56
						c0.07,1.13-0.51,2.19-1.48,2.76L166.86,567C166.4,567.27,165.88,567.4,165.37,567.4z M194.02,354.26l-24.97,204.6L383.7,434.93
						L194.02,354.26z"/>
				</g>
			</g>
		</g>
		<g>
			<polygon class="st8" points="390.35,694.32 191.55,778.87 439.17,778.87 			"/>
			<path class="st0" d="M439.17,781.85H191.55c-1.42,0-2.63-1-2.92-2.38c-0.28-1.39,0.45-2.78,1.75-3.33l198.81-84.56
				c1.39-0.59,2.99-0.05,3.74,1.25l48.82,84.56c0.53,0.92,0.53,2.06,0,2.98C441.22,781.28,440.23,781.85,439.17,781.85z
				 M206.15,775.9h227.86l-44.92-77.81L206.15,775.9z"/>
		</g>
	</g>
	<g>
		<g>
			<g>
				<g>
					<path class="st0" d="M698.46,504.78v38.64h-24.7V436.73h89.56c24.85,0,34.25,10.46,34.25,25.76v16.52
						c0,15.3-9.4,25.76-34.25,25.76H698.46z M772.87,462.95c0-4.09-2.42-6.97-7.27-6.97h-67.13v29.4h67.28
						c4.85,0,7.12-2.27,7.12-6.22V462.95z"/>
				</g>
			</g>
			<g>
				<g>
					<path class="st0" d="M841.07,543.42V436.73h25v87.29h84.41v19.4H841.07z"/>
				</g>
			</g>
			<g>
				<g>
					<path class="st0" d="M1115.97,543.42l-51.67-81.22l-52.74,81.22h-27.58l71.07-106.68h18.18l70.62,106.68H1115.97z"/>
				</g>
			</g>
			<g>
				<g>
					<path class="st0" d="M1204.94,543.42v-87.44h-55.01v-19.24h133.66v19.24h-53.8v87.44H1204.94z"/>
				</g>
			</g>
			<g>
				<g>
					<path class="st0" d="M1355.58,543.42c-24.85,0-34.25-10.46-34.25-25.76v-55.16c0-15.3,9.4-25.76,34.25-25.76h72.28
						c24.85,0,34.25,10.46,34.25,25.76v55.16c0,15.3-9.4,25.76-34.25,25.76H1355.58z M1437.42,462.19c0-4.24-3.33-6.22-9.55-6.22
						h-72.28c-6.21,0-9.55,1.97-9.55,6.22v55.62c0,4.39,3.33,6.21,9.55,6.21h72.28c6.22,0,9.55-1.82,9.55-6.21V462.19z"/>
				</g>
			</g>
			<g>
				<g>
					<path class="st0" d="M1643.06,543.42l-111.07-77.74v77.74h-21.52V436.73h21.37l101.68,73.04v-73.04h21.67v106.68H1643.06z"/>
				</g>
			</g>
			<g>
				<g>
					<path class="st0" d="M1704.91,543.42V436.73h24.7v106.68H1704.91z"/>
				</g>
			</g>
			<g>
				<g>
					<path class="st0" d="M1812.95,543.42c-24.85,0-34.25-10.46-34.25-25.76v-55.16c0-15.3,9.4-25.76,34.25-25.76H1901v19.24h-88.05
						c-6.21,0-9.55,1.97-9.55,6.22v55.62c0,4.39,3.33,6.21,9.55,6.21H1901v19.4H1812.95z"/>
				</g>
			</g>
		</g>
		<g>
			<g>
				<g>
					<g>
						<path class="st0" d="M931.31,640.67V611.7h26.54c8.19,0,10.7,2.84,10.7,8.56v12.14c0,5.43-2.51,8.27-10.7,8.27H931.31z
							 M963.07,620.26c0-3.33-1.15-4.28-5.23-4.28h-21.07v20.41h21.07c4.07,0,5.23-0.95,5.23-4.03V620.26z"/>
					</g>
				</g>
				<g>
					<g>
						<path class="st0" d="M994.24,640.67V611.7h29.79v4.28h-24.32v7.24h23.08v4.28h-23.08v8.89h24.32v4.28H994.24z"/>
					</g>
				</g>
				<g>
					<g>
						<path class="st0" d="M1049.6,640.67v-4.28h25.18c2.47,0,3.62-0.95,3.62-2.67v-3.66c0-1.73-1.15-2.67-3.62-2.67h-17.03
							c-6.58,0-9.09-2.84-9.09-7v-1.69c0-4.16,2.51-7,9.09-7h24.52v4.28h-24.52c-2.47,0-3.62,0.95-3.62,2.67v1.77
							c0,1.73,1.15,2.67,3.62,2.67h17.03c6.58,0,9.09,2.84,9.09,7v3.58c0,4.16-2.51,7-9.09,7H1049.6z"/>
					</g>
				</g>
				<g>
					<g>
						<path class="st0" d="M1109.12,640.67V611.7h5.47v28.97H1109.12z"/>
					</g>
				</g>
				<g>
					<g>
						<path class="st0" d="M1150.83,640.67c-6.87,0-10.33-2.1-10.33-6.25v-16.46c0-4.16,3.46-6.25,10.33-6.25h22.67v4.28h-22.67
							c-3.25,0-4.86,0.66-4.86,1.98v16.46c0,1.32,1.6,1.98,4.86,1.98h12.8c3.25,0,4.86-0.62,4.86-1.89v-9.63h5.47v9.63
							c0,4.11-3.46,6.17-10.33,6.17H1150.83z"/>
					</g>
				</g>
				<g>
					<g>
						<path class="st0" d="M1235.25,640.67l-30.9-22.55v22.55h-4.77V611.7h4.73l28.84,21.52V611.7h4.77v28.97H1235.25z"/>
					</g>
				</g>
				<g>
					<g>
						<path class="st0" d="M1313.93,640.67c-7.16,0-9.18-2.96-9.18-6.25v-4.73c0-2.8,1.6-4.16,3.79-4.73
							c-2.06-0.41-3.42-2.3-3.42-4.81v-2.18c0-3.87,2.47-6.25,8.89-6.25h13.12v4.28h-13.12c-2.55,0-3.42,0.66-3.42,2.26v2.51
							c0,1.6,0.86,2.26,3.42,2.26h21.68v4.28h-3.54v13.37H1313.93z M1326.69,627.3h-12.76c-2.18,0-3.7,0.66-3.7,2.47v3.62
							c0,2.35,1.52,3.01,3.7,3.01h12.76V627.3z"/>
					</g>
				</g>
				<g>
					<g>
						<path class="st0" d="M1400.67,640.67V611.7h23.58c6.42,0,8.88,2.39,8.88,6.25v2.67c0,2.51-1.36,4.4-3.42,4.81
							c2.18,0.58,3.79,1.94,3.79,4.73v4.24c0,3.29-2.02,6.25-9.18,6.25H1400.67z M1427.67,618.25c0-1.6-0.87-2.26-3.42-2.26h-18.1
							v7.53h18.1c2.55,0,3.42-0.66,3.42-2.26V618.25z M1428.04,630.26c0-1.81-1.52-2.47-3.7-2.47h-18.19v8.6h18.19
							c2.18,0,3.7-0.66,3.7-3.01V630.26z"/>
					</g>
				</g>
				<g>
					<g>
						<path class="st0" d="M1468.18,640.67c-6.58,0-9.09-2.84-9.09-7V611.7h5.47v22.01c0,1.73,1.15,2.67,3.62,2.67h17.98
							c2.47,0,3.62-0.95,3.62-2.67V611.7h5.47v21.97c0,4.16-1.36,7-7.94,7H1468.18z"/>
					</g>
				</g>
				<g>
					<g>
						<path class="st0" d="M1521.24,640.67V611.7h5.47v28.97H1521.24z"/>
					</g>
				</g>
				<g>
					<g>
						<path class="st0" d="M1552.83,640.67V611.7h5.51v24.69h23.49v4.28H1552.83z"/>
					</g>
				</g>
				<g>
					<g>
						<path class="st0" d="M1606.22,640.67V611.7h26.54c8.19,0,10.7,2.84,10.7,8.56v12.14c0,5.43-2.51,8.27-10.7,8.27H1606.22z
							 M1637.98,620.26c0-3.33-1.15-4.28-5.23-4.28h-21.07v20.41h21.07c4.07,0,5.23-0.95,5.23-4.03V620.26z"/>
					</g>
				</g>
			</g>
			<g>
				<rect x="673.76" y="624.05" class="st0" width="213.3" height="4.28"/>
			</g>
			<g>
				<rect x="1687.7" y="624.05" class="st0" width="213.3" height="4.28"/>
			</g>
		</g>
	</g>
</g>
</svg>
