<?xml version="1.0" encoding="utf-8"?>
<!-- Generator: Adobe Illustrator 28.2.0, SVG Export Plug-In . SVG Version: 6.00 Build 0)  -->
<svg version="1.1" id="Layer_1" xmlns="http://www.w3.org/2000/svg" xmlns:xlink="http://www.w3.org/1999/xlink" x="0px" y="0px"
	 viewBox="0 0 1920 1080" style="enable-background:new 0 0 1920 1080;" xml:space="preserve">
<style type="text/css">
	.st0{fill:#ECE8E1;}
</style>
<g>
	<g>
		<g>
			<g>
				<path class="st0" d="M48.24,487.48v59.82H10V382.13h138.66c38.47,0,53.02,16.19,53.02,39.88v25.58
					c0,23.69-14.55,39.88-53.02,39.88H48.24z M163.43,422.72c0-6.33-3.75-10.79-11.26-10.79H48.24v45.52h104.17
					c7.51,0,11.02-3.52,11.02-9.62V422.72z"/>
			</g>
		</g>
		<g>
			<g>
				<path class="st0" d="M269.03,547.3V382.13h38.71v135.13h130.68v30.03H269.03z"/>
			</g>
		</g>
		<g>
			<g>
				<path class="st0" d="M694.63,547.3l-80-125.75L532.98,547.3h-42.7l110.03-165.17h28.15L737.79,547.3H694.63z"/>
			</g>
		</g>
		<g>
			<g>
				<path class="st0" d="M832.37,547.3V411.93H747.2v-29.79h206.93v29.79h-83.29V547.3H832.37z"/>
			</g>
		</g>
		<g>
			<g>
				<path class="st0" d="M1065.59,547.3c-38.47,0-53.02-16.19-53.02-39.88v-85.4c0-23.69,14.55-39.88,53.02-39.88h111.91
					c38.48,0,53.03,16.19,53.03,39.88v85.4c0,23.69-14.55,39.88-53.03,39.88H1065.59z M1192.28,421.55c0-6.57-5.16-9.62-14.79-9.62
					h-111.91c-9.62,0-14.78,3.05-14.78,9.62v86.1c0,6.8,5.16,9.62,14.78,9.62h111.91c9.62,0,14.79-2.82,14.79-9.62V421.55z"/>
			</g>
		</g>
		<g>
			<g>
				<path class="st0" d="M1510.66,547.3L1338.7,426.94V547.3h-33.31V382.13h33.08l157.42,113.08V382.13h33.55V547.3H1510.66z"/>
			</g>
		</g>
		<g>
			<g>
				<path class="st0" d="M1606.41,547.3V382.13h38.24V547.3H1606.41z"/>
			</g>
		</g>
		<g>
			<g>
				<path class="st0" d="M1773.69,547.3c-38.47,0-53.02-16.19-53.02-39.88v-85.4c0-23.69,14.55-39.88,53.02-39.88H1910v29.79
					h-136.31c-9.62,0-14.78,3.05-14.78,9.62v86.1c0,6.8,5.16,9.62,14.78,9.62H1910v30.03H1773.69z"/>
			</g>
		</g>
	</g>
	<g>
		<g>
			<g>
				<g>
					<path class="st0" d="M408.73,697.87v-44.84h41.09c12.68,0,16.56,4.4,16.56,13.25v18.8c0,8.4-3.89,12.8-16.56,12.8H408.73z
						 M457.91,666.27c0-5.16-1.78-6.62-8.09-6.62H417.2v31.6h32.61c6.31,0,8.09-1.47,8.09-6.25V666.27z"/>
				</g>
			</g>
			<g>
				<g>
					<path class="st0" d="M506.16,697.87v-44.84h46.12v6.62h-37.65v11.21h35.73v6.62h-35.73v13.76h37.65v6.62H506.16z"/>
				</g>
			</g>
			<g>
				<g>
					<path class="st0" d="M591.88,697.87v-6.62h38.98c3.82,0,5.61-1.47,5.61-4.14v-5.67c0-2.68-1.78-4.14-5.61-4.14h-26.37
						c-10.19,0-14.08-4.4-14.08-10.83v-2.61c0-6.43,3.89-10.83,14.08-10.83h37.96v6.62h-37.96c-3.82,0-5.61,1.47-5.61,4.14v2.74
						c0,2.68,1.78,4.14,5.61,4.14h26.37c10.19,0,14.08,4.4,14.08,10.83v5.54c0,6.43-3.89,10.83-14.08,10.83H591.88z"/>
				</g>
			</g>
			<g>
				<g>
					<path class="st0" d="M684.03,697.87v-44.84h8.47v44.84H684.03z"/>
				</g>
			</g>
			<g>
				<g>
					<path class="st0" d="M748.6,697.87c-10.64,0-15.99-3.25-15.99-9.68v-25.48c0-6.43,5.35-9.68,15.99-9.68h35.1v6.62h-35.1
						c-5.03,0-7.52,1.02-7.52,3.06v25.48c0,2.04,2.48,3.06,7.52,3.06h19.81c5.03,0,7.52-0.96,7.52-2.93v-14.91h8.47v14.91
						c0,6.37-5.35,9.55-15.99,9.55H748.6z"/>
				</g>
			</g>
			<g>
				<g>
					<path class="st0" d="M879.29,697.87l-47.84-34.91v34.91h-7.39v-44.84h7.33l44.65,33.32v-33.32h7.39v44.84H879.29z"/>
				</g>
			</g>
			<g>
				<g>
					<path class="st0" d="M1001.1,697.87c-11.08,0-14.21-4.58-14.21-9.68v-7.33c0-4.33,2.48-6.43,5.86-7.33
						c-3.19-0.63-5.29-3.56-5.29-7.45v-3.37c0-5.99,3.82-9.68,13.76-9.68h20.31v6.62h-20.31c-3.95,0-5.29,1.02-5.29,3.51v3.88
						c0,2.48,1.34,3.51,5.29,3.51h33.57v6.62h-5.48v20.7H1001.1z M1020.85,677.16h-19.75c-3.37,0-5.73,1.02-5.73,3.83v5.6
						c0,3.63,2.36,4.65,5.73,4.65h19.75V677.16z"/>
				</g>
			</g>
			<g>
				<g>
					<path class="st0" d="M1135.4,697.87v-44.84h36.5c9.93,0,13.75,3.69,13.75,9.68v4.14c0,3.88-2.1,6.82-5.29,7.45
						c3.38,0.89,5.86,3,5.86,7.33v6.56c0,5.1-3.12,9.68-14.21,9.68H1135.4z M1177.19,663.15c0-2.48-1.34-3.51-5.29-3.51h-28.03
						v11.66h28.03c3.94,0,5.29-1.02,5.29-3.51V663.15z M1177.76,681.75c0-2.8-2.36-3.82-5.73-3.82h-28.15v13.32h28.15
						c3.37,0,5.73-1.02,5.73-4.65V681.75z"/>
				</g>
			</g>
			<g>
				<g>
					<path class="st0" d="M1239.91,697.87c-10.19,0-14.07-4.4-14.07-10.83v-34.01h8.47v34.08c0,2.67,1.79,4.14,5.61,4.14h27.84
						c3.82,0,5.6-1.47,5.6-4.14v-34.08h8.47v34.01c0,6.43-2.1,10.83-12.29,10.83H1239.91z"/>
				</g>
			</g>
			<g>
				<g>
					<path class="st0" d="M1322.06,697.87v-44.84h8.47v44.84H1322.06z"/>
				</g>
			</g>
			<g>
				<g>
					<path class="st0" d="M1370.96,697.87v-44.84h8.54v38.22h36.37v6.62H1370.96z"/>
				</g>
			</g>
			<g>
				<g>
					<path class="st0" d="M1453.62,697.87v-44.84h41.09c12.68,0,16.56,4.4,16.56,13.25v18.8c0,8.4-3.89,12.8-16.56,12.8H1453.62z
						 M1502.8,666.27c0-5.16-1.79-6.62-8.09-6.62h-32.61v31.6h32.61c6.3,0,8.09-1.47,8.09-6.25V666.27z"/>
				</g>
			</g>
		</g>
		<g>
			<rect x="10" y="672.13" class="st0" width="330.23" height="6.62"/>
		</g>
		<g>
			<rect x="1579.77" y="672.13" class="st0" width="330.23" height="6.62"/>
		</g>
	</g>
</g>
</svg>
