<?xml version="1.0" encoding="utf-8"?>
<!-- Generator: Adobe Illustrator 28.2.0, SVG Export Plug-In . SVG Version: 6.00 Build 0)  -->
<svg version="1.1" id="Layer_1" xmlns="http://www.w3.org/2000/svg" xmlns:xlink="http://www.w3.org/1999/xlink" x="0px" y="0px"
	 viewBox="0 0 1080 1080" style="enable-background:new 0 0 1080 1080;" xml:space="preserve">
<style type="text/css">
	.st0{opacity:0.32;}
	.st1{fill:#055B54;}
	.st2{fill:#00887F;}
	.st3{fill:#11433F;}
	.st4{fill:#007D73;}
	.st5{fill:#006D64;}
	.st6{fill:#00726A;}
</style>
<g>
	<g class="st0">
		<g>
			<path class="st1" d="M440.14,841.38c-1.22,0-2.42-0.38-3.43-1.15L105.95,591.35c-1.43-1.08-2.27-2.77-2.27-4.56
				c0-1.79,0.84-3.48,2.27-4.56l326.73-245.85l-91.02-157.64l9.88-5.7l91.01,157.64l376.27-160.04c1.65-0.7,3.54-0.58,5.08,0.31
				c1.55,0.9,2.59,2.47,2.81,4.25l50.15,410.9c0.26,2.15-0.71,4.26-2.52,5.45c-1.81,1.18-4.13,1.26-6,0.18L445.85,347.79v487.89
				c0,2.16-1.22,4.14-3.15,5.1C441.88,841.19,441.01,841.38,440.14,841.38z M118.86,586.8l315.58,237.45V349.34L118.86,586.8z
				 M452.89,338.69l411.28,237.45l-47.85-392.03L452.89,338.69z"/>
		</g>
	</g>
	<g>
		<g>
			<polygon class="st2" points="727.53,337.91 296.45,586.8 727.53,835.68 			"/>
		</g>
		<g>
			<path class="st1" d="M727.53,841.38c-0.99,0-1.97-0.25-2.85-0.76L293.6,591.74c-1.76-1.02-2.85-2.9-2.85-4.94
				c0-2.04,1.09-3.92,2.85-4.94l431.08-248.88c1.76-1.01,3.94-1.01,5.7,0c1.76,1.02,2.85,2.9,2.85,4.94v497.77
				c0,2.04-1.09,3.92-2.85,4.94C729.5,841.13,728.51,841.38,727.53,841.38z M307.86,586.8l413.97,239V347.79L307.86,586.8z"/>
		</g>
	</g>
	<g>
		<g>
			<polygon class="st3" points="1058.3,586.8 727.53,835.68 821.07,997.69 			"/>
		</g>
		<g>
			<path class="st1" d="M821.06,1003.39c-2.04,0-3.92-1.08-4.94-2.85l-93.54-162.01c-1.44-2.49-0.79-5.67,1.51-7.41l330.77-248.88
				c2.16-1.63,5.18-1.51,7.21,0.29c2.03,1.8,2.52,4.77,1.16,7.12L826,1000.54C824.98,1002.31,823.1,1003.39,821.06,1003.39z
				 M734.99,837.2l86.08,149.08l218.3-378.11L734.99,837.2z"/>
		</g>
	</g>
	<g>
		<g>
			<polygon class="st4" points="727.53,835.68 727.53,337.91 1058.3,586.8 			"/>
		</g>
		<g>
			<path class="st1" d="M727.53,841.38c-0.87,0-1.74-0.2-2.55-0.6c-1.94-0.96-3.15-2.94-3.15-5.1V337.91c0-2.16,1.22-4.14,3.15-5.1
				c1.93-0.97,4.25-0.75,5.97,0.55l330.77,248.88c1.43,1.08,2.27,2.77,2.27,4.56c0,1.79-0.84,3.48-2.27,4.56L730.95,840.24
				C729.95,841,728.74,841.38,727.53,841.38z M733.23,349.34v474.91l315.58-237.45L733.23,349.34z"/>
		</g>
	</g>
	<g>
		<g>
			<polygon class="st5" points="296.45,586.8 727.53,835.68 346.6,997.69 			"/>
		</g>
		<g>
			<path class="st1" d="M346.61,1003.39c-0.99,0-1.97-0.26-2.85-0.76c-1.55-0.89-2.59-2.47-2.81-4.25l-50.15-410.89
				c-0.26-2.15,0.71-4.26,2.52-5.45c1.79-1.19,4.12-1.26,6-0.18l431.08,248.88c1.87,1.08,2.97,3.13,2.84,5.29
				c-0.13,2.15-1.47,4.05-3.46,4.9l-380.92,162.01C348.12,1003.25,347.36,1003.39,346.61,1003.39z M303.5,597.45l47.85,392.02
				L714.78,834.9L303.5,597.45z"/>
		</g>
	</g>
	<g>
		<g>
			<g>
				
					<rect x="324.64" y="151.11" transform="matrix(0.3914 -0.9202 0.9202 0.3914 44.6248 401.8254)" class="st6" width="2.91" height="32.13"/>
			</g>
			<g>
				
					<rect x="296.74" y="147.28" transform="matrix(0.3915 -0.9202 0.9202 0.3915 38.5431 368.9023)" class="st6" width="2.91" height="16.06"/>
			</g>
			<g>
				
					<rect x="279.92" y="144.14" transform="matrix(0.3916 -0.9202 0.9202 0.3916 34.8742 349.0552)" class="st6" width="2.91" height="8.03"/>
			</g>
			<g>
				
					<rect x="268.65" y="141.36" transform="matrix(0.3914 -0.9202 0.9202 0.3914 32.4588 335.8062)" class="st6" width="2.91" height="4.02"/>
			</g>
			<g>
				
					<rect x="260.15" y="138.75" transform="matrix(0.3914 -0.9202 0.9202 0.3914 30.6125 325.7856)" class="st6" width="2.91" height="2.01"/>
			</g>
			<g>
				
					<rect x="817.73" y="158.49" transform="matrix(0.5003 -0.8659 0.8659 0.5003 276.4141 798.8355)" class="st6" width="25.08" height="2.91"/>
			</g>
			<g>
				
					<rect x="836.35" y="137.11" transform="matrix(0.5003 -0.8659 0.8659 0.5003 301.0992 798.8421)" class="st6" width="12.54" height="2.91"/>
			</g>
			<g>
				
					<rect x="847.13" y="123.87" transform="matrix(0.4992 -0.8665 0.8665 0.4992 317.1894 799.4834)" class="st6" width="6.27" height="2.91"/>
			</g>
			<g>
				
					<rect x="853.99" y="114.71" transform="matrix(0.4992 -0.8665 0.8665 0.4992 327.7798 799.4791)" class="st6" width="3.13" height="2.91"/>
			</g>
			<g>
				<rect x="828.65" y="174.45" class="st6" width="39.16" height="2.91"/>
			</g>
			<g>
				<rect x="875.4" y="174.45" class="st6" width="19.58" height="2.91"/>
			</g>
			<g>
				<rect x="902.57" y="174.45" class="st6" width="9.79" height="2.91"/>
			</g>
			<g>
				<rect x="919.95" y="174.45" class="st6" width="4.89" height="2.91"/>
			</g>
			<g>
				<rect x="932.44" y="174.45" class="st6" width="2.45" height="2.91"/>
			</g>
			<g>
				<rect x="316.58" y="174.45" class="st6" width="25.16" height="2.91"/>
			</g>
			<g>
				<rect x="299.12" y="174.45" class="st6" width="12.58" height="2.91"/>
			</g>
			<g>
				<rect x="287.96" y="174.45" class="st6" width="6.29" height="2.91"/>
			</g>
			<g>
				<rect x="279.94" y="174.45" class="st6" width="3.14" height="2.91"/>
			</g>
			<g>
				<rect x="273.5" y="174.45" class="st6" width="1.57" height="2.91"/>
			</g>
		</g>
		<g>
			<g>
				<path class="st1" d="M727.52,343.62c-0.75,0-1.5-0.15-2.23-0.46L344.37,181.15c-2.49-1.06-3.9-3.73-3.35-6.39
					c0.54-2.66,2.88-4.56,5.59-4.56h474.46c2.04,0,3.92,1.09,4.94,2.85c1.02,1.76,1.02,3.94,0,5.7l-93.54,162.01
					C731.42,342.58,729.51,343.62,727.52,343.62z M374.59,181.6l350.52,149.09l86.08-149.09H374.59z"/>
			</g>
		</g>
	</g>
	<g>
		<g>
			<g>
				
					<rect x="333.24" y="152.32" transform="matrix(0.1202 -0.9928 0.9928 0.1202 154.6629 482.0676)" class="st6" width="32.13" height="2.91"/>
			</g>
			<g>
				
					<rect x="344.95" y="122.23" transform="matrix(0.1202 -0.9928 0.9928 0.1202 187.7733 459.2357)" class="st6" width="16.06" height="2.91"/>
			</g>
			<g>
				
					<rect x="351.18" y="104.09" transform="matrix(0.1202 -0.9928 0.9928 0.1202 207.7294 445.473)" class="st6" width="8.03" height="2.91"/>
			</g>
			<g>
				
					<rect x="354.67" y="91.93" transform="matrix(0.1202 -0.9928 0.9928 0.1202 221.1032 436.2496)" class="st6" width="4.02" height="2.91"/>
			</g>
			<g>
				
					<rect x="356.79" y="82.76" transform="matrix(0.1226 -0.9925 0.9925 0.1226 230.3687 428.9906)" class="st6" width="2.01" height="2.91"/>
			</g>
			<g>
				<rect x="78.41" y="585.34" class="st6" width="25.08" height="2.91"/>
			</g>
			<g>
				<rect x="59.99" y="585.34" class="st6" width="12.54" height="2.91"/>
			</g>
			<g>
				<rect x="47.84" y="585.34" class="st6" width="6.27" height="2.91"/>
			</g>
			<g>
				<rect x="38.83" y="585.34" class="st6" width="3.13" height="2.91"/>
			</g>
			<g>
				
					<rect x="76.21" y="608.87" transform="matrix(0.4998 -0.8662 0.8662 0.4998 -480.7242 388.2805)" class="st6" width="39.17" height="2.91"/>
			</g>
			<g>
				
					<rect x="67.52" y="640.88" transform="matrix(0.4992 -0.8665 0.8665 0.4992 -517.8444 388.6429)" class="st6" width="19.58" height="2.91"/>
			</g>
			<g>
				
					<rect x="61.28" y="660.17" transform="matrix(0.4992 -0.8665 0.8665 0.4992 -540.1351 388.6529)" class="st6" width="9.79" height="2.91"/>
			</g>
			<g>
				
					<rect x="56.26" y="673.1" transform="matrix(0.5003 -0.8659 0.8659 0.5003 -554.7344 387.922)" class="st6" width="4.9" height="2.91"/>
			</g>
			<g>
				
					<rect x="51.85" y="682.85" transform="matrix(0.4992 -0.8665 0.8665 0.4992 -566.3469 388.6634)" class="st6" width="2.45" height="2.91"/>
			</g>
			<g>
				
					<rect x="342.75" y="159.33" transform="matrix(0.5003 -0.8659 0.8659 0.5003 38.3471 388.0158)" class="st6" width="25.15" height="2.91"/>
			</g>
			<g>
				
					<rect x="360.91" y="138.78" transform="matrix(0.5003 -0.8659 0.8659 0.5003 62.0804 388.0222)" class="st6" width="12.58" height="2.91"/>
			</g>
			<g>
				
					<rect x="371.21" y="126.38" transform="matrix(0.5003 -0.8659 0.8659 0.5003 76.3834 388.0228)" class="st6" width="6.29" height="2.91"/>
			</g>
			<g>
				
					<rect x="377.57" y="118.08" transform="matrix(0.4992 -0.8665 0.8665 0.4992 86.2925 388.3751)" class="st6" width="3.15" height="2.91"/>
			</g>
			<g>
				
					<rect x="381.98" y="111.81" transform="matrix(0.4992 -0.8665 0.8665 0.4992 93.5322 388.3729)" class="st6" width="1.57" height="2.91"/>
			</g>
		</g>
		<g>
			<g>
				<path class="st1" d="M296.45,592.5H109.37c-2.04,0-3.92-1.08-4.94-2.85c-1.02-1.76-1.02-3.94,0-5.7l237.23-410.9
					c1.36-2.35,4.17-3.42,6.75-2.56c2.57,0.86,4.18,3.41,3.85,6.1l-50.15,410.9C301.76,590.35,299.33,592.5,296.45,592.5z
					 M119.25,581.1H291.4l46.15-378.11L119.25,581.1z"/>
			</g>
		</g>
	</g>
	<g>
		<g>
			<g>
				
					<rect x="817.73" y="158.49" transform="matrix(0.5003 -0.8659 0.8659 0.5003 276.4141 798.8355)" class="st6" width="25.08" height="2.91"/>
			</g>
			<g>
				
					<rect x="836.35" y="137.11" transform="matrix(0.5003 -0.8659 0.8659 0.5003 301.0992 798.8421)" class="st6" width="12.54" height="2.91"/>
			</g>
			<g>
				
					<rect x="847.13" y="123.87" transform="matrix(0.4992 -0.8665 0.8665 0.4992 317.1894 799.4834)" class="st6" width="6.27" height="2.91"/>
			</g>
			<g>
				
					<rect x="853.99" y="114.71" transform="matrix(0.4992 -0.8665 0.8665 0.4992 327.7798 799.4791)" class="st6" width="3.13" height="2.91"/>
			</g>
			<g>
				
					<rect x="806.03" y="132.79" transform="matrix(0.866 -0.5 0.5 0.866 32.0096 424.1946)" class="st6" width="2.91" height="39.16"/>
			</g>
			<g>
				
					<rect x="787.55" y="110.57" transform="matrix(0.8661 -0.4999 0.4999 0.8661 45.5038 410.5735)" class="st6" width="2.91" height="19.58"/>
			</g>
			<g>
				
					<rect x="776.41" y="96.18" transform="matrix(0.866 -0.5001 0.5001 0.866 53.7096 402.5514)" class="st6" width="2.91" height="9.79"/>
			</g>
			<g>
				
					<rect x="768.94" y="85.7" transform="matrix(0.8661 -0.4998 0.4998 0.8661 59.0794 396.8656)" class="st6" width="2.91" height="4.89"/>
			</g>
			<g>
				
					<rect x="763.32" y="77.17" transform="matrix(0.8663 -0.4995 0.4995 0.8663 63.0878 392.4965)" class="st6" width="2.91" height="2.45"/>
			</g>
		</g>
		<g>
			<g>
				<path class="st1" d="M1058.3,592.5c-1.21,0-2.41-0.38-3.43-1.15L724.1,342.47c-2.31-1.73-2.95-4.91-1.51-7.41l93.54-162.01
					c2.04-3.53,7.84-3.53,9.88,0l237.23,410.9c1.36,2.35,0.87,5.32-1.16,7.12C1061,592.02,1059.65,592.5,1058.3,592.5z
					 M734.99,336.39l304.38,229.02l-218.3-378.11L734.99,336.39z"/>
			</g>
		</g>
	</g>
	<g>
		<g>
			<g>
				<rect x="71.02" y="585.34" class="st6" width="32.13" height="2.91"/>
			</g>
			<g>
				<rect x="48.73" y="585.34" class="st6" width="16.06" height="2.91"/>
			</g>
			<g>
				<rect x="34.48" y="585.34" class="st6" width="8.03" height="2.91"/>
			</g>
			<g>
				<rect x="24.24" y="585.34" class="st6" width="4.01" height="2.91"/>
			</g>
			<g>
				<rect x="16" y="585.34" class="st6" width="2.01" height="2.91"/>
			</g>
			<g>
				
					<rect x="99.19" y="559.1" transform="matrix(0.8661 -0.4999 0.4999 0.8661 -272.2844 126.8541)" class="st6" width="2.91" height="25.16"/>
			</g>
			<g>
				
					<rect x="87.32" y="544.83" transform="matrix(0.8659 -0.5002 0.5002 0.8659 -263.7521 118.2947)" class="st6" width="2.91" height="12.58"/>
			</g>
			<g>
				
					<rect x="80.17" y="535.59" transform="matrix(0.8663 -0.4995 0.4995 0.8663 -258.2078 112.8113)" class="st6" width="2.91" height="6.29"/>
			</g>
			<g>
				
					<rect x="75.37" y="528.85" transform="matrix(0.8662 -0.4997 0.4997 0.8662 -254.7854 109.3717)" class="st6" width="2.91" height="3.15"/>
			</g>
			<g>
				
					<rect x="71.76" y="523.38" transform="matrix(0.8656 -0.5007 0.5007 0.8656 -252.6034 107.0895)" class="st6" width="2.91" height="1.57"/>
			</g>
		</g>
		<g>
			<g>
				<path class="st1" d="M346.61,1003.39c-1.99,0-3.9-1.05-4.94-2.85L104.43,589.65c-1.02-1.76-1.02-3.94,0-5.7
					c1.02-1.77,2.9-2.85,4.94-2.85h187.08c2.88,0,5.31,2.15,5.66,5.01L352.27,997c0.33,2.69-1.28,5.24-3.85,6.1
					C347.82,1003.3,347.21,1003.39,346.61,1003.39z M119.25,592.5l218.3,378.11L291.4,592.5H119.25z"/>
			</g>
		</g>
	</g>
	<g>
		<g>
			<g>
				
					<rect x="324.64" y="151.11" transform="matrix(0.3914 -0.9202 0.9202 0.3914 44.6248 401.8254)" class="st6" width="2.91" height="32.13"/>
			</g>
			<g>
				
					<rect x="296.74" y="147.28" transform="matrix(0.3915 -0.9202 0.9202 0.3915 38.5431 368.9023)" class="st6" width="2.91" height="16.06"/>
			</g>
			<g>
				
					<rect x="279.92" y="144.14" transform="matrix(0.3916 -0.9202 0.9202 0.3916 34.8742 349.0552)" class="st6" width="2.91" height="8.03"/>
			</g>
			<g>
				
					<rect x="268.65" y="141.36" transform="matrix(0.3914 -0.9202 0.9202 0.3914 32.4588 335.8062)" class="st6" width="2.91" height="4.02"/>
			</g>
			<g>
				
					<rect x="260.15" y="138.75" transform="matrix(0.3914 -0.9202 0.9202 0.3914 30.6125 325.7856)" class="st6" width="2.91" height="2.01"/>
			</g>
			<g>
				
					<rect x="336.14" y="157.12" transform="matrix(0.1202 -0.9928 0.9928 0.1202 149.379 485.7101)" class="st6" width="25.16" height="2.91"/>
			</g>
			<g>
				
					<rect x="345.31" y="133.56" transform="matrix(0.1202 -0.9928 0.9928 0.1202 175.3042 467.8308)" class="st6" width="12.58" height="2.91"/>
			</g>
			<g>
				
					<rect x="350.18" y="119.36" transform="matrix(0.1202 -0.9928 0.9928 0.1202 190.9269 457.0571)" class="st6" width="6.29" height="2.91"/>
			</g>
			<g>
				
					<rect x="352.92" y="109.84" transform="matrix(0.1202 -0.9928 0.9928 0.1202 201.3991 449.8354)" class="st6" width="3.14" height="2.91"/>
			</g>
			<g>
				
					<rect x="354.58" y="102.66" transform="matrix(0.1226 -0.9925 0.9925 0.1226 208.4872 444.0396)" class="st6" width="1.57" height="2.91"/>
			</g>
		</g>
		<g>
			<g>
				<path class="st1" d="M296.45,592.5c-1.1,0-2.19-0.31-3.14-0.94c-1.81-1.19-2.78-3.31-2.52-5.45l50.15-410.9
					c0.22-1.78,1.26-3.35,2.81-4.25c1.55-0.89,3.43-1,5.08-0.31l380.92,162.01c1.99,0.85,3.33,2.74,3.46,4.9
					c0.13,2.16-0.97,4.2-2.84,5.29L299.3,591.74C298.42,592.25,297.43,592.5,296.45,592.5z M351.35,184.11L303.5,576.14
					l411.28-237.45L351.35,184.11z"/>
			</g>
		</g>
	</g>
	<g>
		<polygon class="st1" points="727.53,835.68 346.6,997.69 821.07,997.69 		"/>
		<path class="st1" d="M821.06,1003.39H346.61c-2.71,0-5.05-1.91-5.59-4.56c-0.54-2.66,0.86-5.32,3.35-6.39l380.92-162.01
			c2.67-1.14,5.73-0.1,7.17,2.4L826,994.84c1.02,1.76,1.02,3.94,0,5.7C824.98,1002.31,823.1,1003.39,821.06,1003.39z M374.59,991.99
			h436.6l-86.08-149.08L374.59,991.99z"/>
	</g>
</g>
</svg>
