<?xml version="1.0" encoding="utf-8"?>
<!-- Generator: Adobe Illustrator 28.2.0, SVG Export Plug-In . SVG Version: 6.00 Build 0)  -->
<svg version="1.1" id="Layer_1" xmlns="http://www.w3.org/2000/svg" xmlns:xlink="http://www.w3.org/1999/xlink" x="0px" y="0px"
	 viewBox="0 0 1920 1080" style="enable-background:new 0 0 1920 1080;" xml:space="preserve">
<style type="text/css">
	.st0{fill:#015C55;}
	.st1{opacity:0.32;}
	.st2{fill:#055B54;}
	.st3{fill:#00887F;}
	.st4{fill:#11433F;}
	.st5{fill:#007D73;}
	.st6{fill:#006D64;}
	.st7{fill:#00726A;}
</style>
<g>
	<g>
		<path class="st0" d="M693.16,734.06c-0.38,1.46-0.57,2.96-0.57,4.5c0.03,0.97,0.14,1.89,0.35,2.76s0.59,1.62,1.16,2.27
			c0.57,0.65,1.37,1.16,2.39,1.54c1.03,0.38,2.38,0.57,4.06,0.57l10.75-0.04v-11.68c0-4.57,1.24-8.08,3.71-10.55
			c2.48-2.46,6-3.69,10.57-3.69l7.42,0.16c0.59,0,1.16,0.13,1.68,0.38s0.98,0.59,1.36,0.99c0.38,0.41,0.68,0.87,0.89,1.4
			c0.22,0.53,0.33,1.09,0.33,1.69v21.29h6.16v8.72h-10.5c-0.6,0-1.16-0.12-1.68-0.35c-0.53-0.23-0.99-0.54-1.38-0.93
			c-0.39-0.39-0.7-0.85-0.93-1.38c-0.23-0.53-0.35-1.09-0.35-1.68V728.5l-3.16-0.08c-1.06,0-1.93,0.09-2.64,0.28
			c-0.7,0.19-1.26,0.5-1.66,0.93c-0.41,0.43-0.7,1-0.87,1.7c-0.18,0.7-0.26,1.58-0.26,2.64l0.04,15.66c0,0.65-0.1,1.26-0.31,1.84
			c-0.2,0.58-0.49,1.08-0.87,1.5c-0.38,0.42-0.84,0.76-1.38,1.01c-0.54,0.26-1.15,0.39-1.82,0.39h-15.09
			c-3.08,0-5.68-0.46-7.79-1.38c-2.11-0.92-3.82-2.12-5.13-3.61c-1.31-1.49-2.26-3.19-2.84-5.09c-0.58-1.91-0.87-3.86-0.87-5.86
			c0-1.14,0.07-2.26,0.22-3.39s0.36-2.2,0.63-3.24c0.27-1.04,0.58-2.02,0.93-2.94c0.35-0.92,0.72-1.74,1.09-2.47l7.71,4.01
			C693.99,731.38,693.54,732.6,693.16,734.06z M695.03,762.79c0.24-0.58,0.57-1.08,0.99-1.5s0.91-0.75,1.48-0.99
			c0.57-0.24,1.18-0.37,1.83-0.37c0.65,0,1.26,0.12,1.84,0.37c0.58,0.24,1.08,0.57,1.5,0.99s0.75,0.92,0.99,1.5
			c0.24,0.58,0.36,1.19,0.36,1.84c0,0.65-0.12,1.26-0.36,1.82c-0.24,0.57-0.57,1.06-0.99,1.48s-0.92,0.75-1.5,1
			c-0.58,0.24-1.2,0.36-1.84,0.36c-0.65,0-1.26-0.12-1.83-0.36c-0.57-0.24-1.06-0.58-1.48-1s-0.75-0.91-0.99-1.48
			c-0.24-0.57-0.36-1.18-0.36-1.82C694.66,763.99,694.79,763.38,695.03,762.79z M705.9,762.79c0.24-0.58,0.57-1.08,0.99-1.5
			s0.91-0.75,1.48-0.99c0.57-0.24,1.18-0.37,1.83-0.37c0.65,0,1.26,0.12,1.84,0.37c0.58,0.24,1.08,0.57,1.5,0.99s0.75,0.92,0.99,1.5
			c0.24,0.58,0.36,1.19,0.36,1.84c0,0.65-0.12,1.26-0.36,1.82c-0.24,0.57-0.57,1.06-0.99,1.48s-0.92,0.75-1.5,1
			c-0.58,0.24-1.2,0.36-1.84,0.36c-0.65,0-1.26-0.12-1.83-0.36c-0.57-0.24-1.06-0.58-1.48-1s-0.75-0.91-0.99-1.48
			c-0.24-0.57-0.36-1.18-0.36-1.82C705.53,763.99,705.66,763.38,705.9,762.79z"/>
		<path class="st0" d="M753.77,745.66v-24.58h8.68v28.55c0.03,0.11,0.04,0.24,0.04,0.41c0,0.59-0.11,1.15-0.34,1.68
			c-0.23,0.53-0.54,0.99-0.93,1.38c-0.39,0.39-0.86,0.7-1.4,0.93c-0.54,0.23-1.11,0.35-1.7,0.35h-15.74v-8.72H753.77z
			 M753.77,708.48c0.24-0.58,0.57-1.08,0.99-1.5c0.42-0.42,0.91-0.75,1.48-1c0.57-0.24,1.18-0.36,1.82-0.36
			c0.65,0,1.26,0.12,1.85,0.36c0.58,0.24,1.08,0.58,1.5,1c0.42,0.42,0.75,0.92,0.99,1.5c0.24,0.58,0.36,1.2,0.36,1.84
			c0,0.65-0.12,1.26-0.36,1.83c-0.24,0.57-0.57,1.06-0.99,1.48c-0.42,0.42-0.92,0.75-1.5,0.99c-0.58,0.24-1.2,0.37-1.85,0.37
			c-0.65,0-1.26-0.12-1.82-0.37c-0.57-0.24-1.06-0.57-1.48-0.99s-0.75-0.91-0.99-1.48c-0.24-0.57-0.36-1.18-0.36-1.83
			C753.41,709.68,753.53,709.06,753.77,708.48z"/>
		<path class="st0" d="M774.69,754.38c-0.59,0-1.16-0.12-1.68-0.35c-0.53-0.23-0.99-0.54-1.4-0.93c-0.41-0.39-0.72-0.85-0.95-1.38
			c-0.23-0.53-0.34-1.09-0.34-1.68c0-0.16,0.01-0.3,0.04-0.41v-44.25h8.68v40.28h7.99v8.72H774.69z"/>
		<path class="st0" d="M786,745.66h8.19v-24.58h8.68v24.58h7.38v8.72H786V745.66z M793.42,763.4c0.24-0.58,0.57-1.08,0.99-1.5
			s0.91-0.75,1.48-0.99c0.57-0.24,1.18-0.37,1.82-0.37s1.26,0.12,1.85,0.37c0.58,0.24,1.08,0.57,1.5,0.99
			c0.42,0.42,0.75,0.92,0.99,1.5s0.36,1.2,0.36,1.84c0,0.65-0.12,1.26-0.36,1.83c-0.24,0.57-0.57,1.06-0.99,1.48
			c-0.42,0.42-0.92,0.75-1.5,1c-0.58,0.24-1.2,0.36-1.85,0.36s-1.26-0.12-1.82-0.36c-0.57-0.24-1.06-0.58-1.48-1
			c-0.42-0.42-0.75-0.91-0.99-1.48c-0.24-0.57-0.36-1.18-0.36-1.83C793.06,764.6,793.18,763.98,793.42,763.4z"/>
		<path class="st0" d="M809.56,745.66h6.69v-9.9c0-1.24,0.19-2.52,0.57-3.81c0.38-1.3,0.92-2.56,1.62-3.77
			c0.7-1.22,1.55-2.35,2.53-3.41c0.99-1.05,2.08-1.96,3.29-2.72c1.2-0.76,2.49-1.34,3.87-1.76c1.38-0.42,2.83-0.6,4.34-0.55
			l12.29,0.16c0.59,0,1.16,0.11,1.68,0.34c0.53,0.23,0.99,0.54,1.38,0.93c0.39,0.39,0.7,0.84,0.93,1.36
			c0.23,0.51,0.34,1.07,0.34,1.66v21.46h6.12v8.72h-45.67V745.66z M840.38,745.66v-17.11c-2.03-0.03-3.58-0.05-4.64-0.06
			c-1.07-0.02-1.85-0.03-2.35-0.04c-0.5-0.01-0.8-0.02-0.91-0.02h-0.2c-0.92,0-1.82,0.21-2.7,0.63c-0.88,0.42-1.66,0.97-2.35,1.64
			c-0.69,0.68-1.24,1.45-1.64,2.33c-0.4,0.88-0.61,1.78-0.61,2.7v9.94H840.38z"/>
		<path class="st0" d="M862.18,745.66v-40.28h8.68v44.25c0.03,0.11,0.04,0.24,0.04,0.41c0,0.59-0.12,1.15-0.35,1.68
			c-0.23,0.53-0.55,0.99-0.95,1.38c-0.41,0.39-0.87,0.7-1.4,0.93c-0.53,0.23-1.09,0.35-1.68,0.35H854.4v-8.72H862.18z"/>
		<path class="st0" d="M880.26,754.3v-48.92h8.68v48.92H880.26z"/>
		<path class="st0" d="M916.35,745.62h22.96c-0.14-3.03-0.47-5.58-1.01-7.65c-0.54-2.07-1.39-3.75-2.55-5.05
			c-1.35-1.57-3.36-2.7-6.02-3.39c-2.66-0.69-6.19-1.01-10.57-0.95l-0.08-8.68c2.87-0.03,5.48,0.09,7.85,0.34
			c2.37,0.26,4.5,0.68,6.39,1.28c1.89,0.59,3.58,1.36,5.07,2.31c1.49,0.94,2.8,2.07,3.93,3.37c1.87,2.16,3.22,4.75,4.08,7.77
			c0.85,3.01,1.39,6.58,1.6,10.69h5.07v8.72l-36.71-0.04V745.62z"/>
		<path class="st0" d="M960.62,721.08h8.68v24.58h7.42v8.72h-24.3v-8.72h8.19V721.08z M954.78,763.6c0.24-0.58,0.57-1.08,0.99-1.5
			c0.42-0.42,0.91-0.75,1.48-1c0.57-0.24,1.18-0.36,1.83-0.36c0.65,0,1.26,0.12,1.84,0.36c0.58,0.24,1.08,0.58,1.5,1
			c0.42,0.42,0.75,0.92,0.99,1.5c0.24,0.58,0.36,1.2,0.36,1.84c0,0.65-0.12,1.26-0.36,1.83c-0.24,0.57-0.57,1.06-0.99,1.48
			c-0.42,0.42-0.92,0.75-1.5,0.99c-0.58,0.24-1.2,0.37-1.84,0.37c-0.65,0-1.26-0.12-1.83-0.37c-0.57-0.24-1.06-0.57-1.48-0.99
			s-0.75-0.91-0.99-1.48c-0.24-0.57-0.36-1.18-0.36-1.83C954.42,764.8,954.54,764.19,954.78,763.6z M965.65,763.6
			c0.24-0.58,0.57-1.08,0.99-1.5c0.42-0.42,0.91-0.75,1.48-1c0.57-0.24,1.18-0.36,1.83-0.36c0.65,0,1.26,0.12,1.84,0.36
			c0.58,0.24,1.08,0.58,1.5,1c0.42,0.42,0.75,0.92,1,1.5c0.24,0.58,0.36,1.2,0.36,1.84c0,0.65-0.12,1.26-0.36,1.83
			c-0.24,0.57-0.58,1.06-1,1.48s-0.92,0.75-1.5,0.99c-0.58,0.24-1.2,0.37-1.84,0.37c-0.65,0-1.26-0.12-1.83-0.37
			c-0.57-0.24-1.06-0.57-1.48-0.99s-0.75-0.91-0.99-1.48c-0.24-0.57-0.37-1.18-0.37-1.83C965.29,764.8,965.41,764.19,965.65,763.6z"
			/>
		<path class="st0" d="M984.14,721.08h8.68v24.58h7.42v8.72h-24.3v-8.72h8.19V721.08z M978.3,763.6c0.24-0.58,0.57-1.08,0.99-1.5
			c0.42-0.42,0.91-0.75,1.48-1c0.57-0.24,1.18-0.36,1.82-0.36c0.65,0,1.27,0.12,1.85,0.36c0.58,0.24,1.08,0.58,1.5,1
			c0.42,0.42,0.75,0.92,0.99,1.5c0.24,0.58,0.37,1.2,0.37,1.84c0,0.65-0.12,1.26-0.37,1.83c-0.24,0.57-0.57,1.06-0.99,1.48
			s-0.92,0.75-1.5,0.99c-0.58,0.24-1.2,0.37-1.85,0.37c-0.65,0-1.26-0.12-1.82-0.37c-0.57-0.24-1.06-0.57-1.48-0.99
			s-0.75-0.91-0.99-1.48c-0.24-0.57-0.37-1.18-0.37-1.83C977.93,764.8,978.05,764.19,978.3,763.6z M989.17,763.6
			c0.24-0.58,0.57-1.08,0.99-1.5c0.42-0.42,0.91-0.75,1.48-1c0.57-0.24,1.18-0.36,1.83-0.36c0.65,0,1.26,0.12,1.84,0.36
			c0.58,0.24,1.08,0.58,1.5,1c0.42,0.42,0.75,0.92,1,1.5c0.24,0.58,0.36,1.2,0.36,1.84c0,0.65-0.12,1.26-0.36,1.83
			c-0.24,0.57-0.58,1.06-1,1.48s-0.92,0.75-1.5,0.99c-0.58,0.24-1.2,0.37-1.84,0.37c-0.65,0-1.26-0.12-1.83-0.37
			c-0.57-0.24-1.06-0.57-1.48-0.99c-0.42-0.42-0.75-0.91-0.99-1.48c-0.24-0.57-0.37-1.18-0.37-1.83
			C988.8,764.8,988.92,764.19,989.17,763.6z"/>
		<path class="st0" d="M1032.35,751.42c-0.3,0.87-0.82,1.58-1.56,2.13c-0.74,0.55-1.6,0.83-2.57,0.83h-13.63v-2.96
			c-0.3,0.87-0.83,1.58-1.58,2.13c-0.76,0.55-1.61,0.83-2.56,0.83h-10.99v-8.72h6.61v-24.58h8.72v24.58h9.09v-24.58h8.68v24.58h9.13
			v-24.58h8.68v24.58h6.57v8.72h-24.58V751.42z M1017.38,708.6c0.24-0.58,0.58-1.08,1-1.5s0.91-0.75,1.48-0.99
			c0.57-0.24,1.18-0.37,1.82-0.37c0.65,0,1.27,0.12,1.85,0.37c0.58,0.24,1.08,0.57,1.5,0.99c0.42,0.42,0.75,0.92,0.99,1.5
			c0.24,0.58,0.37,1.2,0.37,1.84c0,0.65-0.12,1.26-0.37,1.83c-0.24,0.57-0.57,1.06-0.99,1.48c-0.42,0.42-0.92,0.75-1.5,1
			c-0.58,0.24-1.2,0.36-1.85,0.36c-0.65,0-1.26-0.12-1.82-0.36c-0.57-0.24-1.06-0.58-1.48-1c-0.42-0.42-0.75-0.91-1-1.48
			c-0.24-0.57-0.36-1.18-0.36-1.83C1017.02,709.8,1017.14,709.19,1017.38,708.6z M1023.92,698.1c0.24-0.58,0.57-1.08,0.99-1.5
			c0.42-0.42,0.91-0.75,1.48-1c0.57-0.24,1.18-0.36,1.83-0.36c0.65,0,1.26,0.12,1.84,0.36s1.08,0.58,1.5,1
			c0.42,0.42,0.75,0.92,1,1.5c0.24,0.58,0.36,1.2,0.36,1.84c0,0.65-0.12,1.26-0.36,1.83c-0.24,0.57-0.58,1.06-1,1.48
			c-0.42,0.42-0.92,0.75-1.5,0.99s-1.2,0.37-1.84,0.37c-0.65,0-1.26-0.12-1.83-0.37c-0.57-0.24-1.06-0.57-1.48-0.99
			c-0.42-0.42-0.75-0.91-0.99-1.48c-0.24-0.57-0.37-1.18-0.37-1.83C1023.55,699.3,1023.67,698.68,1023.92,698.1z M1030.41,708.6
			c0.24-0.58,0.57-1.08,0.99-1.5c0.42-0.42,0.91-0.75,1.48-0.99s1.18-0.37,1.83-0.37c0.65,0,1.26,0.12,1.84,0.37
			c0.58,0.24,1.08,0.57,1.5,0.99c0.42,0.42,0.75,0.92,1,1.5c0.24,0.58,0.36,1.2,0.36,1.84c0,0.65-0.12,1.26-0.36,1.83
			c-0.24,0.57-0.58,1.06-1,1.48c-0.42,0.42-0.92,0.75-1.5,1c-0.58,0.24-1.2,0.36-1.84,0.36c-0.65,0-1.26-0.12-1.83-0.36
			s-1.06-0.58-1.48-1c-0.42-0.42-0.75-0.91-0.99-1.48c-0.24-0.57-0.37-1.18-0.37-1.83C1030.04,709.8,1030.16,709.19,1030.41,708.6z"
			/>
		<path class="st0" d="M1056.18,745.66h8.19v-24.58h8.68v24.58h7.38v8.72h-24.25V745.66z M1057.76,708.6c0.24-0.58,0.58-1.08,1-1.5
			c0.42-0.42,0.91-0.75,1.48-0.99c0.57-0.24,1.18-0.37,1.83-0.37c0.65,0,1.26,0.12,1.84,0.37s1.08,0.57,1.5,0.99
			c0.42,0.42,0.75,0.92,0.99,1.5c0.24,0.58,0.37,1.2,0.37,1.84c0,0.65-0.12,1.26-0.37,1.83c-0.24,0.57-0.57,1.06-0.99,1.48
			c-0.42,0.42-0.92,0.75-1.5,1s-1.2,0.36-1.84,0.36c-0.65,0-1.26-0.12-1.83-0.36c-0.57-0.24-1.06-0.58-1.48-1
			c-0.42-0.42-0.75-0.91-1-1.48c-0.24-0.57-0.36-1.18-0.36-1.83C1057.39,709.8,1057.51,709.19,1057.76,708.6z M1068.63,708.6
			c0.24-0.58,0.57-1.08,0.99-1.5c0.42-0.42,0.91-0.75,1.48-0.99s1.18-0.37,1.82-0.37c0.65,0,1.27,0.12,1.85,0.37s1.08,0.57,1.5,0.99
			c0.42,0.42,0.75,0.92,0.99,1.5c0.24,0.58,0.37,1.2,0.37,1.84c0,0.65-0.12,1.26-0.37,1.83c-0.24,0.57-0.57,1.06-0.99,1.48
			c-0.42,0.42-0.92,0.75-1.5,1s-1.2,0.36-1.85,0.36c-0.65,0-1.26-0.12-1.82-0.36s-1.06-0.58-1.48-1c-0.42-0.42-0.75-0.91-0.99-1.48
			c-0.24-0.57-0.37-1.18-0.37-1.83C1068.26,709.8,1068.39,709.19,1068.63,708.6z"/>
		<path class="st0" d="M1087.52,745.66v-40.28h8.68v44.25c0.03,0.11,0.04,0.24,0.04,0.41c0,0.59-0.11,1.15-0.34,1.68
			c-0.23,0.53-0.55,0.99-0.95,1.38c-0.41,0.39-0.87,0.7-1.4,0.93c-0.53,0.23-1.09,0.35-1.68,0.35h-12.13v-8.72H1087.52z"/>
		<path class="st0" d="M1148.18,754.38c-0.67,0-1.28-0.13-1.82-0.39c-0.54-0.25-1-0.59-1.38-1.01c-0.38-0.42-0.67-0.91-0.87-1.48
			c-0.2-0.57-0.3-1.18-0.3-1.83l-0.08-21.21l-7.67-0.04c-1.03,0-2.01,0.2-2.94,0.61c-0.93,0.41-1.74,0.96-2.43,1.66
			c-0.69,0.7-1.24,1.52-1.64,2.46c-0.4,0.93-0.61,1.91-0.61,2.94l0.04,9.37c1.24,0.24,2.5,0.42,3.77,0.53
			c1.27,0.11,2.55,0.16,3.85,0.16c1.11,0,2.23-0.04,3.37-0.12l0.69,8.68c-0.7,0.05-1.39,0.1-2.05,0.12
			c-0.66,0.03-1.35,0.04-2.05,0.04c-2.19,0-4.39-0.14-6.61-0.41c-2.22-0.27-4.3-0.69-6.25-1.26c-1-0.22-1.83-0.71-2.47-1.5
			c-0.65-0.78-0.97-1.7-0.97-2.76v-12.86c0-2.25,0.42-4.36,1.28-6.35c0.85-1.99,2.01-3.72,3.49-5.19c1.47-1.47,3.2-2.64,5.17-3.51
			c1.97-0.87,4.1-1.3,6.37-1.3h10.79c0.73,0,1.43,0.14,2.09,0.43c0.66,0.28,1.24,0.67,1.74,1.15c0.5,0.49,0.91,1.05,1.22,1.69
			c0.31,0.63,0.47,1.32,0.47,2.05l0.12,20.61h6.98v8.72H1148.18z M1128.67,708.6c0.24-0.58,0.57-1.08,0.99-1.5
			c0.42-0.42,0.91-0.75,1.48-0.99s1.18-0.37,1.83-0.37c0.65,0,1.26,0.12,1.84,0.37s1.08,0.57,1.5,0.99c0.42,0.42,0.75,0.92,1,1.5
			c0.24,0.58,0.36,1.2,0.36,1.84c0,0.65-0.12,1.26-0.36,1.83c-0.24,0.57-0.58,1.06-1,1.48c-0.42,0.42-0.92,0.75-1.5,1
			s-1.2,0.36-1.84,0.36c-0.65,0-1.26-0.12-1.83-0.36s-1.06-0.58-1.48-1c-0.42-0.42-0.75-0.91-0.99-1.48
			c-0.24-0.57-0.37-1.18-0.37-1.83C1128.31,709.8,1128.43,709.19,1128.67,708.6z M1139.54,708.6c0.24-0.58,0.58-1.08,1-1.5
			c0.42-0.42,0.91-0.75,1.48-0.99c0.57-0.24,1.18-0.37,1.83-0.37c0.65,0,1.26,0.12,1.84,0.37c0.58,0.24,1.08,0.57,1.5,0.99
			c0.42,0.42,0.75,0.92,0.99,1.5c0.24,0.58,0.37,1.2,0.37,1.84c0,0.65-0.12,1.26-0.37,1.83c-0.24,0.57-0.57,1.06-0.99,1.48
			c-0.42,0.42-0.92,0.75-1.5,1c-0.58,0.24-1.19,0.36-1.84,0.36c-0.65,0-1.26-0.12-1.83-0.36c-0.57-0.24-1.06-0.58-1.48-1
			c-0.42-0.42-0.75-0.91-1-1.48c-0.24-0.57-0.36-1.18-0.36-1.83C1139.18,709.8,1139.3,709.19,1139.54,708.6z"/>
		<path class="st0" d="M1158.47,745.66h8.19v-24.58h8.68v24.58h7.38v8.72h-24.25V745.66z M1159.8,708.68c0.24-0.58,0.58-1.08,1-1.5
			c0.42-0.42,0.91-0.75,1.48-0.99c0.57-0.24,1.18-0.37,1.82-0.37c0.65,0,1.27,0.12,1.85,0.37c0.58,0.24,1.08,0.57,1.5,0.99
			c0.42,0.42,0.75,0.92,0.99,1.5c0.24,0.58,0.37,1.2,0.37,1.85c0,0.65-0.12,1.26-0.37,1.82c-0.24,0.57-0.57,1.06-0.99,1.48
			c-0.42,0.42-0.92,0.75-1.5,0.99c-0.58,0.24-1.2,0.37-1.85,0.37c-0.65,0-1.26-0.12-1.82-0.37c-0.57-0.24-1.06-0.57-1.48-0.99
			c-0.42-0.42-0.75-0.91-1-1.48c-0.24-0.57-0.36-1.18-0.36-1.82C1159.44,709.88,1159.56,709.27,1159.8,708.68z M1166.34,698.18
			c0.24-0.58,0.57-1.08,0.99-1.5c0.42-0.42,0.91-0.75,1.48-0.99c0.57-0.24,1.18-0.37,1.83-0.37c0.65,0,1.26,0.12,1.84,0.37
			c0.58,0.24,1.08,0.57,1.5,0.99c0.42,0.42,0.75,0.92,1,1.5c0.24,0.58,0.36,1.2,0.36,1.85c0,0.65-0.12,1.26-0.36,1.82
			c-0.24,0.57-0.58,1.06-1,1.48c-0.42,0.42-0.92,0.75-1.5,1c-0.58,0.24-1.2,0.36-1.84,0.36c-0.65,0-1.26-0.12-1.83-0.36
			c-0.57-0.24-1.06-0.58-1.48-1c-0.42-0.42-0.75-0.91-0.99-1.48c-0.24-0.57-0.37-1.18-0.37-1.82
			C1165.97,699.38,1166.09,698.76,1166.34,698.18z M1172.83,708.68c0.24-0.58,0.57-1.08,0.99-1.5c0.42-0.42,0.91-0.75,1.48-0.99
			c0.57-0.24,1.18-0.37,1.83-0.37c0.65,0,1.26,0.12,1.84,0.37c0.58,0.24,1.08,0.57,1.5,0.99c0.42,0.42,0.75,0.92,1,1.5
			c0.24,0.58,0.36,1.2,0.36,1.85c0,0.65-0.12,1.26-0.36,1.82c-0.24,0.57-0.58,1.06-1,1.48c-0.42,0.42-0.92,0.75-1.5,0.99
			c-0.58,0.24-1.2,0.37-1.84,0.37c-0.65,0-1.26-0.12-1.83-0.37c-0.57-0.24-1.06-0.57-1.48-0.99c-0.42-0.42-0.75-0.91-0.99-1.48
			c-0.24-0.57-0.37-1.18-0.37-1.82C1172.46,709.88,1172.58,709.27,1172.83,708.68z"/>
		<path class="st0" d="M1196.58,745.66v-24.58h8.68v28.55c0.03,0.11,0.04,0.24,0.04,0.41c0,0.59-0.11,1.15-0.35,1.68
			c-0.23,0.53-0.54,0.99-0.93,1.38c-0.39,0.39-0.86,0.7-1.4,0.93c-0.54,0.23-1.11,0.35-1.7,0.35h-18.94v-8.72H1196.58z
			 M1183.16,763.6c0.24-0.58,0.58-1.08,1-1.5c0.42-0.42,0.91-0.75,1.48-1c0.57-0.24,1.18-0.36,1.82-0.36c0.65,0,1.26,0.12,1.84,0.36
			c0.58,0.24,1.08,0.58,1.5,1c0.42,0.42,0.75,0.92,0.99,1.5c0.24,0.58,0.37,1.2,0.37,1.84c0,0.65-0.12,1.26-0.37,1.83
			c-0.24,0.57-0.57,1.06-0.99,1.48c-0.42,0.42-0.92,0.75-1.5,0.99c-0.58,0.24-1.19,0.37-1.84,0.37c-0.65,0-1.26-0.12-1.82-0.37
			c-0.57-0.24-1.06-0.57-1.48-0.99c-0.42-0.42-0.75-0.91-1-1.48c-0.24-0.57-0.36-1.18-0.36-1.83
			C1182.79,764.8,1182.92,764.19,1183.16,763.6z M1194.03,763.6c0.24-0.58,0.57-1.08,0.99-1.5c0.42-0.42,0.91-0.75,1.48-1
			c0.57-0.24,1.18-0.36,1.83-0.36c0.65,0,1.26,0.12,1.84,0.36c0.58,0.24,1.08,0.58,1.5,1c0.42,0.42,0.75,0.92,1,1.5
			c0.24,0.58,0.36,1.2,0.36,1.84c0,0.65-0.12,1.26-0.36,1.83c-0.24,0.57-0.58,1.06-1,1.48c-0.42,0.42-0.92,0.75-1.5,0.99
			c-0.58,0.24-1.2,0.37-1.84,0.37c-0.65,0-1.26-0.12-1.83-0.37c-0.57-0.24-1.06-0.57-1.48-0.99c-0.42-0.42-0.75-0.91-0.99-1.48
			c-0.24-0.57-0.37-1.18-0.37-1.83C1193.66,764.8,1193.78,764.19,1194.03,763.6z"/>
		<path class="st0" d="M1212.84,745.62h22.96c-0.14-3.03-0.47-5.58-1.01-7.65c-0.54-2.07-1.39-3.75-2.56-5.05
			c-1.35-1.57-3.36-2.7-6.02-3.39c-2.66-0.69-6.18-1.01-10.57-0.95l-0.08-8.68c2.87-0.03,5.48,0.09,7.85,0.34
			c2.36,0.26,4.49,0.68,6.39,1.28c1.9,0.59,3.58,1.36,5.07,2.31c1.49,0.94,2.8,2.07,3.93,3.37c1.87,2.16,3.22,4.75,4.08,7.77
			c0.85,3.01,1.39,6.58,1.6,10.69h5.07v8.72l-36.71-0.04V745.62z"/>
		<path class="st0" d="M1260.52,720.16c1.67,0.04,3.4,0.13,5.17,0.26s3.55,0.37,5.33,0.71c1.79,0.34,3.51,0.86,5.17,1.56
			c1.66,0.7,3.22,1.64,4.68,2.82s2.75,2.68,3.87,4.5c1.12,1.83,2.03,4.02,2.72,6.57c0.69,2.56,1.09,5.58,1.2,9.06h6.53v8.72h-46.44
			v-8.72h31.19c-0.16-3.22-0.72-5.86-1.66-7.93c-0.95-2.07-2.14-3.73-3.57-4.97c-1.43-1.24-3.03-2.14-4.79-2.7
			c-1.76-0.55-3.52-0.93-5.29-1.12c-1.77-0.19-3.49-0.28-5.15-0.26c-1.66,0.01-3.12-0.02-4.36-0.1l0.73-8.68
			C1257.29,720.04,1258.84,720.12,1260.52,720.16z"/>
		<path class="st0" d="M1302.19,745.66v-40.28h8.68v44.25c0.03,0.11,0.04,0.24,0.04,0.41c0,0.59-0.11,1.15-0.35,1.68
			c-0.23,0.53-0.55,0.99-0.95,1.38c-0.41,0.39-0.87,0.7-1.4,0.93c-0.53,0.23-1.09,0.35-1.68,0.35h-12.13v-8.72H1302.19z"/>
		<path class="st0" d="M1320.28,754.3v-48.92h8.68v48.92H1320.28z"/>
		<path class="st0" d="M1383.37,754.38c-0.67,0-1.28-0.13-1.82-0.39c-0.54-0.25-1-0.59-1.38-1.01c-0.38-0.42-0.67-0.91-0.87-1.48
			c-0.2-0.57-0.3-1.18-0.3-1.83l-0.08-21.21l-7.67-0.04c-1.03,0-2.01,0.2-2.94,0.61c-0.93,0.41-1.74,0.96-2.43,1.66
			c-0.69,0.7-1.24,1.52-1.64,2.46c-0.4,0.93-0.61,1.91-0.61,2.94l0.04,9.37c1.24,0.24,2.5,0.42,3.77,0.53
			c1.27,0.11,2.55,0.16,3.85,0.16c1.11,0,2.23-0.04,3.37-0.12l0.69,8.68c-0.7,0.05-1.39,0.1-2.05,0.12
			c-0.66,0.03-1.35,0.04-2.05,0.04c-2.19,0-4.39-0.14-6.61-0.41c-2.22-0.27-4.3-0.69-6.25-1.26c-1-0.22-1.83-0.71-2.47-1.5
			c-0.65-0.78-0.97-1.7-0.97-2.76v-12.86c0-2.25,0.42-4.36,1.28-6.35c0.85-1.99,2.01-3.72,3.49-5.19c1.47-1.47,3.2-2.64,5.17-3.51
			c1.97-0.87,4.1-1.3,6.37-1.3h10.79c0.73,0,1.43,0.14,2.09,0.43c0.66,0.28,1.24,0.67,1.74,1.15c0.5,0.49,0.91,1.05,1.22,1.69
			c0.31,0.63,0.47,1.32,0.47,2.05l0.12,20.61h6.98v8.72H1383.37z M1363.86,708.6c0.24-0.58,0.57-1.08,0.99-1.5
			c0.42-0.42,0.91-0.75,1.48-0.99s1.18-0.37,1.83-0.37c0.65,0,1.26,0.12,1.84,0.37c0.58,0.24,1.08,0.57,1.5,0.99
			c0.42,0.42,0.75,0.92,1,1.5c0.24,0.58,0.36,1.2,0.36,1.84c0,0.65-0.12,1.26-0.36,1.83c-0.24,0.57-0.58,1.06-1,1.48
			c-0.42,0.42-0.92,0.75-1.5,1c-0.58,0.24-1.2,0.36-1.84,0.36c-0.65,0-1.26-0.12-1.83-0.36s-1.06-0.58-1.48-1
			c-0.42-0.42-0.75-0.91-0.99-1.48c-0.24-0.57-0.37-1.18-0.37-1.83C1363.5,709.8,1363.62,709.19,1363.86,708.6z M1374.73,708.6
			c0.24-0.58,0.58-1.08,1-1.5c0.42-0.42,0.91-0.75,1.48-0.99c0.57-0.24,1.18-0.37,1.83-0.37c0.65,0,1.26,0.12,1.84,0.37
			s1.08,0.57,1.5,0.99c0.42,0.42,0.75,0.92,0.99,1.5c0.24,0.58,0.37,1.2,0.37,1.84c0,0.65-0.12,1.26-0.37,1.83
			c-0.24,0.57-0.57,1.06-0.99,1.48c-0.42,0.42-0.92,0.75-1.5,1s-1.19,0.36-1.84,0.36c-0.65,0-1.26-0.12-1.83-0.36
			c-0.57-0.24-1.06-0.58-1.48-1c-0.42-0.42-0.75-0.91-1-1.48c-0.24-0.57-0.36-1.18-0.36-1.83
			C1374.37,709.8,1374.49,709.19,1374.73,708.6z"/>
		<path class="st0" d="M1408.26,745.66v-24.58h8.68v28.55c0.03,0.11,0.04,0.24,0.04,0.41c0,0.59-0.11,1.15-0.35,1.68
			c-0.23,0.53-0.54,0.99-0.93,1.38c-0.39,0.39-0.86,0.7-1.4,0.93c-0.54,0.23-1.11,0.35-1.7,0.35h-18.94v-8.72H1408.26z
			 M1394.83,763.6c0.24-0.58,0.58-1.08,1-1.5c0.42-0.42,0.91-0.75,1.48-1c0.57-0.24,1.18-0.36,1.83-0.36c0.65,0,1.26,0.12,1.84,0.36
			c0.58,0.24,1.08,0.58,1.5,1c0.42,0.42,0.75,0.92,0.99,1.5c0.24,0.58,0.37,1.2,0.37,1.84c0,0.65-0.12,1.26-0.37,1.83
			c-0.24,0.57-0.57,1.06-0.99,1.48c-0.42,0.42-0.92,0.75-1.5,0.99c-0.58,0.24-1.19,0.37-1.84,0.37c-0.65,0-1.26-0.12-1.83-0.37
			c-0.57-0.24-1.06-0.57-1.48-0.99c-0.42-0.42-0.75-0.91-1-1.48c-0.24-0.57-0.36-1.18-0.36-1.83
			C1394.47,764.8,1394.59,764.19,1394.83,763.6z M1405.7,763.6c0.24-0.58,0.57-1.08,0.99-1.5c0.42-0.42,0.91-0.75,1.48-1
			c0.57-0.24,1.18-0.36,1.83-0.36c0.65,0,1.26,0.12,1.84,0.36c0.58,0.24,1.08,0.58,1.5,1c0.42,0.42,0.75,0.92,1,1.5
			c0.24,0.58,0.36,1.2,0.36,1.84c0,0.65-0.12,1.26-0.36,1.83c-0.24,0.57-0.58,1.06-1,1.48c-0.42,0.42-0.92,0.75-1.5,0.99
			c-0.58,0.24-1.2,0.37-1.84,0.37c-0.65,0-1.26-0.12-1.83-0.37c-0.57-0.24-1.06-0.57-1.48-0.99c-0.42-0.42-0.75-0.91-0.99-1.48
			c-0.24-0.57-0.37-1.18-0.37-1.83C1405.34,764.8,1405.46,764.19,1405.7,763.6z"/>
		<path class="st0" d="M1443.84,747.3c-0.15,2.29-0.45,4.56-0.91,6.83c-0.57,2.81-1.4,5.45-2.49,7.91c-1.1,2.46-2.55,4.6-4.36,6.43
			c-1.81,1.83-4.02,3.26-6.63,4.3c-2.61,1.04-5.73,1.56-9.35,1.56v-8.72c2.33,0,4.32-0.35,5.98-1.04c1.66-0.69,3.06-1.64,4.18-2.86
			c1.12-1.22,2.02-2.64,2.7-4.28c0.68-1.64,1.18-3.39,1.52-5.27c0.34-1.88,0.56-3.84,0.67-5.88c0.11-2.04,0.16-4.06,0.16-6.07
			c0-2.7-0.06-5.35-0.16-7.93c-0.11-2.58-0.16-4.92-0.16-7h8.68c0,2.16,0.07,4.54,0.2,7.12c0.14,2.58,0.2,5.29,0.2,8.13
			C1444.06,742.76,1443.99,745.01,1443.84,747.3z"/>
		<path class="st0" d="M1454.47,754.38c-0.59,0-1.15-0.12-1.68-0.35c-0.53-0.23-0.99-0.54-1.4-0.93c-0.41-0.39-0.72-0.85-0.95-1.38
			c-0.23-0.53-0.34-1.09-0.34-1.68c0-0.16,0.01-0.3,0.04-0.41v-44.25h8.68v40.28h7.99v8.72H1454.47z"/>
		<path class="st0" d="M1465.82,745.66h6.69v-9.9c0-1.24,0.19-2.52,0.57-3.81c0.38-1.3,0.92-2.56,1.62-3.77s1.55-2.35,2.53-3.41
			c0.99-1.05,2.08-1.96,3.29-2.72c1.2-0.76,2.49-1.34,3.87-1.76c1.38-0.42,2.83-0.6,4.34-0.55l12.29,0.16
			c0.59,0,1.15,0.11,1.68,0.34c0.53,0.23,0.99,0.54,1.38,0.93c0.39,0.39,0.7,0.84,0.93,1.36c0.23,0.51,0.35,1.07,0.35,1.66v21.46
			h6.12v8.72h-45.67V745.66z M1496.65,745.66v-17.11c-2.03-0.03-3.58-0.05-4.64-0.06c-1.07-0.02-1.85-0.03-2.35-0.04
			c-0.5-0.01-0.8-0.02-0.91-0.02h-0.2c-0.92,0-1.82,0.21-2.7,0.63c-0.88,0.42-1.66,0.97-2.35,1.64c-0.69,0.68-1.24,1.45-1.64,2.33
			c-0.41,0.88-0.61,1.78-0.61,2.7v9.94H1496.65z"/>
		<path class="st0" d="M1522.02,745.66l-4.7-7.22c-0.79-1.22-1.36-2.43-1.73-3.63c-0.36-1.2-0.55-2.37-0.55-3.51
			c0-1.49,0.3-2.92,0.91-4.3c0.61-1.38,1.48-2.61,2.61-3.69c1.14-1.08,2.5-1.95,4.1-2.6c1.6-0.65,3.39-0.97,5.39-0.97h9.01
			c1.78,0,3.47,0.28,5.05,0.85c1.58,0.57,2.97,1.37,4.16,2.42c1.19,1.04,2.13,2.28,2.82,3.71c0.69,1.43,1.04,3.02,1.04,4.75
			c0,2.3-0.77,4.62-2.31,6.98l-4.66,7.22h11.52v8.72h-44.25v-8.72H1522.02z M1532.77,745.66l7.79-11.97
			c0.57-0.89,0.85-1.69,0.85-2.39c0-0.49-0.13-0.91-0.39-1.26c-0.25-0.35-0.59-0.65-1.01-0.89c-0.42-0.24-0.88-0.43-1.4-0.55
			c-0.51-0.12-1.03-0.18-1.54-0.18h-9.01c-0.57,0-1.11,0.07-1.62,0.22c-0.52,0.15-0.97,0.35-1.38,0.61
			c-0.4,0.26-0.72,0.56-0.95,0.91c-0.23,0.35-0.35,0.73-0.35,1.14c0,0.76,0.27,1.55,0.81,2.39l7.79,11.97H1532.77z"/>
		<path class="st0" d="M1553.88,745.66h6.69v-9.9c0-1.24,0.19-2.52,0.57-3.81c0.38-1.3,0.92-2.56,1.62-3.77
			c0.7-1.22,1.55-2.35,2.53-3.41c0.99-1.05,2.08-1.96,3.29-2.72c1.2-0.76,2.49-1.34,3.87-1.76c1.38-0.42,2.83-0.6,4.34-0.55
			l12.29,0.16c0.59,0,1.15,0.11,1.68,0.34c0.53,0.23,0.99,0.54,1.38,0.93c0.39,0.39,0.7,0.84,0.93,1.36
			c0.23,0.51,0.34,1.07,0.34,1.66v21.46h6.12v8.72h-45.67V745.66z M1584.71,745.66v-17.11c-2.03-0.03-3.58-0.05-4.64-0.06
			c-1.07-0.02-1.85-0.03-2.35-0.04c-0.5-0.01-0.8-0.02-0.91-0.02h-0.2c-0.92,0-1.82,0.21-2.7,0.63c-0.88,0.42-1.66,0.97-2.35,1.64
			c-0.69,0.68-1.24,1.45-1.64,2.33c-0.41,0.88-0.61,1.78-0.61,2.7v9.94H1584.71z"/>
		<path class="st0" d="M1606.51,745.66v-40.28h8.68v44.25c0.03,0.11,0.04,0.24,0.04,0.41c0,0.59-0.11,1.15-0.35,1.68
			c-0.23,0.53-0.55,0.99-0.95,1.38c-0.41,0.39-0.87,0.7-1.4,0.93c-0.53,0.23-1.09,0.35-1.68,0.35h-12.13v-8.72H1606.51z"/>
		<path class="st0" d="M1624.59,754.3v-48.92h8.68v48.92H1624.59z"/>
		<path class="st0" d="M1687.69,754.38c-0.68,0-1.28-0.13-1.82-0.39c-0.54-0.25-1-0.59-1.38-1.01c-0.38-0.42-0.67-0.91-0.87-1.48
			c-0.2-0.57-0.3-1.18-0.3-1.83l-0.08-21.21l-7.67-0.04c-1.03,0-2.01,0.2-2.94,0.61c-0.93,0.41-1.74,0.96-2.43,1.66
			c-0.69,0.7-1.24,1.52-1.64,2.46c-0.4,0.93-0.61,1.91-0.61,2.94l0.04,9.37c1.24,0.24,2.5,0.42,3.77,0.53
			c1.27,0.11,2.55,0.16,3.85,0.16c1.11,0,2.23-0.04,3.37-0.12l0.69,8.68c-0.7,0.05-1.39,0.1-2.05,0.12
			c-0.66,0.03-1.35,0.04-2.05,0.04c-2.19,0-4.39-0.14-6.61-0.41c-2.22-0.27-4.3-0.69-6.25-1.26c-1-0.22-1.83-0.71-2.47-1.5
			c-0.65-0.78-0.97-1.7-0.97-2.76v-12.86c0-2.25,0.42-4.36,1.28-6.35c0.85-1.99,2.01-3.72,3.49-5.19c1.47-1.47,3.2-2.64,5.17-3.51
			c1.97-0.87,4.1-1.3,6.37-1.3h10.79c0.73,0,1.43,0.14,2.09,0.43c0.66,0.28,1.24,0.67,1.74,1.15c0.5,0.49,0.91,1.05,1.22,1.69
			c0.31,0.63,0.47,1.32,0.47,2.05l0.12,20.61h6.98v8.72H1687.69z M1668.18,708.6c0.24-0.58,0.57-1.08,0.99-1.5
			c0.42-0.42,0.91-0.75,1.48-0.99s1.18-0.37,1.83-0.37c0.65,0,1.26,0.12,1.84,0.37c0.58,0.24,1.08,0.57,1.5,0.99
			c0.42,0.42,0.75,0.92,1,1.5c0.24,0.58,0.36,1.2,0.36,1.84c0,0.65-0.12,1.26-0.36,1.83c-0.24,0.57-0.58,1.06-1,1.48
			c-0.42,0.42-0.92,0.75-1.5,1c-0.58,0.24-1.2,0.36-1.84,0.36c-0.65,0-1.26-0.12-1.83-0.36s-1.06-0.58-1.48-1
			c-0.42-0.42-0.75-0.91-0.99-1.48c-0.24-0.57-0.37-1.18-0.37-1.83C1667.81,709.8,1667.93,709.19,1668.18,708.6z M1679.05,708.6
			c0.24-0.58,0.58-1.08,1-1.5c0.42-0.42,0.91-0.75,1.48-0.99c0.57-0.24,1.18-0.37,1.83-0.37c0.65,0,1.26,0.12,1.84,0.37
			s1.08,0.57,1.5,0.99c0.42,0.42,0.75,0.92,0.99,1.5c0.24,0.58,0.37,1.2,0.37,1.84c0,0.65-0.12,1.26-0.37,1.83
			c-0.24,0.57-0.57,1.06-0.99,1.48c-0.42,0.42-0.92,0.75-1.5,1s-1.19,0.36-1.84,0.36c-0.65,0-1.26-0.12-1.83-0.36
			c-0.57-0.24-1.06-0.58-1.48-1c-0.42-0.42-0.75-0.91-1-1.48c-0.24-0.57-0.36-1.18-0.36-1.83
			C1678.68,709.8,1678.8,709.19,1679.05,708.6z"/>
		<path class="st0" d="M1736.87,745.66v-4.22c0-1.49-0.05-2.64-0.14-3.45c-0.09-0.81-0.31-1.41-0.65-1.8
			c-0.34-0.39-0.85-0.63-1.54-0.73c-0.69-0.1-1.63-0.14-2.82-0.14l-21.05-0.08c-1.67,0-3.02-0.35-4.03-1.05
			c-1.01-0.7-1.73-1.62-2.15-2.74c-0.42-1.12-0.55-2.37-0.41-3.75c0.15-1.38,0.56-2.76,1.24-4.14c1.46-2.95,3.4-5.54,5.82-7.77
			c2.42-2.23,5.1-4.08,8.05-5.56c2.95-1.47,6.05-2.55,9.31-3.22c3.26-0.68,6.44-0.96,9.55-0.85l-0.28,8.68
			c-2.24-0.08-4.56,0.11-6.96,0.57c-2.39,0.46-4.68,1.18-6.87,2.17c-2.19,0.99-4.19,2.23-6,3.73c-1.81,1.5-3.26,3.26-4.34,5.29
			h15.37c2.16,0,4.08,0.03,5.74,0.1c1.66,0.07,3.11,0.24,4.34,0.51c1.23,0.27,2.27,0.69,3.1,1.26c0.84,0.57,1.52,1.35,2.03,2.33
			c0.51,0.98,0.88,2.23,1.11,3.73c0.23,1.5,0.35,3.33,0.35,5.5v2.47c0,0.79-0.01,1.57-0.02,2.35c-0.01,0.78-0.02,1.61-0.02,2.47
			v2.72c0,0.59-0.11,1.15-0.34,1.68c-0.23,0.53-0.54,0.99-0.93,1.38c-0.39,0.39-0.85,0.7-1.38,0.93c-0.53,0.23-1.09,0.35-1.68,0.35
			h-43.76v-8.72H1736.87z"/>
		<path class="st0" d="M1771.52,732.41c0.14,2.58,0.2,5.29,0.2,8.13c0,1.7-0.04,3.41-0.12,5.11h6v8.72h-7.1
			c-0.59,2.78-1.44,5.39-2.53,7.83s-2.54,4.55-4.34,6.35c-1.8,1.8-3.99,3.21-6.59,4.24c-2.6,1.03-5.69,1.54-9.29,1.54v-8.72
			c2.33,0,4.32-0.35,5.98-1.04c1.66-0.69,3.06-1.64,4.18-2.86c1.12-1.22,2.02-2.64,2.7-4.28c0.68-1.64,1.18-3.39,1.52-5.27
			c0.34-1.88,0.56-3.84,0.67-5.88c0.11-2.04,0.16-4.06,0.16-6.07c0-2.7-0.06-5.35-0.16-7.93c-0.11-2.58-0.16-4.92-0.16-7h8.68
			C1771.32,727.46,1771.39,729.83,1771.52,732.41z"/>
		<path class="st0" d="M1809.48,751.42c-0.3,0.87-0.82,1.58-1.56,2.13c-0.74,0.55-1.6,0.83-2.57,0.83h-13.63v-2.96
			c-0.3,0.87-0.83,1.58-1.58,2.13c-0.76,0.55-1.61,0.83-2.56,0.83h-10.99v-8.72h6.61v-24.58h8.72v24.58h9.08v-24.58h8.68v24.58h9.13
			v-24.58h8.68v24.58h6.57v8.72h-24.58V751.42z M1794.51,708.6c0.24-0.58,0.57-1.08,0.99-1.5c0.42-0.42,0.91-0.75,1.48-0.99
			c0.57-0.24,1.18-0.37,1.82-0.37c0.65,0,1.27,0.12,1.85,0.37s1.08,0.57,1.5,0.99c0.42,0.42,0.75,0.92,0.99,1.5
			c0.24,0.58,0.37,1.2,0.37,1.84c0,0.65-0.12,1.26-0.37,1.83c-0.24,0.57-0.57,1.06-0.99,1.48c-0.42,0.42-0.92,0.75-1.5,1
			s-1.2,0.36-1.85,0.36c-0.65,0-1.26-0.12-1.82-0.36c-0.57-0.24-1.06-0.58-1.48-1c-0.42-0.42-0.75-0.91-0.99-1.48
			c-0.24-0.57-0.37-1.18-0.37-1.83C1794.15,709.8,1794.27,709.19,1794.51,708.6z M1801.04,698.1c0.24-0.58,0.57-1.08,0.99-1.5
			c0.42-0.42,0.91-0.75,1.48-1s1.18-0.36,1.83-0.36c0.65,0,1.26,0.12,1.84,0.36s1.08,0.58,1.5,1c0.42,0.42,0.75,0.92,1,1.5
			c0.24,0.58,0.36,1.2,0.36,1.84c0,0.65-0.12,1.26-0.36,1.83c-0.24,0.57-0.58,1.06-1,1.48c-0.42,0.42-0.92,0.75-1.5,0.99
			s-1.2,0.37-1.84,0.37c-0.65,0-1.26-0.12-1.83-0.37s-1.06-0.57-1.48-0.99c-0.42-0.42-0.75-0.91-0.99-1.48
			c-0.24-0.57-0.37-1.18-0.37-1.83C1800.68,699.3,1800.8,698.68,1801.04,698.1z M1807.53,708.6c0.24-0.58,0.57-1.08,0.99-1.5
			c0.42-0.42,0.91-0.75,1.48-0.99s1.18-0.37,1.83-0.37c0.65,0,1.26,0.12,1.84,0.37s1.08,0.57,1.5,0.99c0.42,0.42,0.75,0.92,1,1.5
			c0.24,0.58,0.36,1.2,0.36,1.84c0,0.65-0.12,1.26-0.36,1.83c-0.24,0.57-0.58,1.06-1,1.48c-0.42,0.42-0.92,0.75-1.5,1
			s-1.2,0.36-1.84,0.36c-0.65,0-1.26-0.12-1.83-0.36s-1.06-0.58-1.48-1c-0.42-0.42-0.75-0.91-0.99-1.48
			c-0.24-0.57-0.37-1.18-0.37-1.83C1807.17,709.8,1807.29,709.19,1807.53,708.6z"/>
		<path class="st0" d="M1841.13,745.66v-40.28h8.68v44.25c0.03,0.11,0.04,0.24,0.04,0.41c0,0.59-0.11,1.15-0.34,1.68
			c-0.23,0.53-0.55,0.99-0.95,1.38c-0.41,0.39-0.87,0.7-1.4,0.93c-0.53,0.23-1.09,0.35-1.68,0.35h-12.13v-8.72H1841.13z"/>
		<path class="st0" d="M1859.21,754.3v-48.92h8.68v48.92H1859.21z"/>
	</g>
	<g>
		<g>
			<g class="st1">
				<g>
					<path class="st2" d="M261.78,692.61c-0.62,0-1.23-0.19-1.74-0.58L92.55,566c-0.73-0.54-1.15-1.4-1.15-2.31
						c0-0.91,0.43-1.76,1.15-2.31L258,436.9l-46.09-79.83l5-2.89L263,434.01l190.54-81.04c0.84-0.35,1.79-0.3,2.57,0.16
						c0.79,0.45,1.31,1.25,1.42,2.15l25.4,208.07c0.13,1.09-0.36,2.15-1.27,2.76c-0.91,0.6-2.09,0.64-3.04,0.09L264.66,442.67
						v247.06c0,1.09-0.62,2.09-1.6,2.58C262.66,692.51,262.22,692.61,261.78,692.61z M99.09,563.7l159.8,120.24V443.45L99.09,563.7z
						 M268.23,438.06L476.5,558.3l-24.23-198.51L268.23,438.06z"/>
				</g>
			</g>
			<g>
				<g>
					<polygon class="st3" points="407.3,437.67 189.01,563.7 407.3,689.72 					"/>
				</g>
				<g>
					<path class="st2" d="M407.3,692.61c-0.5,0-1-0.13-1.44-0.39L187.57,566.2c-0.89-0.52-1.44-1.47-1.44-2.5
						c0-1.03,0.55-1.99,1.44-2.5l218.29-126.03c0.89-0.51,2-0.51,2.89,0c0.89,0.52,1.44,1.47,1.44,2.5v252.06
						c0,1.03-0.55,1.99-1.44,2.5C408.3,692.49,407.8,692.61,407.3,692.61z M194.79,563.7l209.62,121.03V442.67L194.79,563.7z"/>
				</g>
			</g>
			<g>
				<g>
					<polygon class="st4" points="574.8,563.7 407.3,689.72 454.67,771.77 					"/>
				</g>
				<g>
					<path class="st2" d="M454.67,774.65c-1.03,0-1.99-0.55-2.5-1.44l-47.37-82.04c-0.73-1.26-0.4-2.87,0.77-3.75l167.49-126.03
						c1.1-0.82,2.62-0.76,3.65,0.15c1.03,0.91,1.27,2.42,0.59,3.61L457.17,773.21C456.65,774.1,455.7,774.65,454.67,774.65z
						 M411.08,690.5l43.59,75.49l110.54-191.47L411.08,690.5z"/>
				</g>
			</g>
			<g>
				<g>
					<polygon class="st5" points="407.3,689.72 407.3,437.67 574.8,563.7 					"/>
				</g>
				<g>
					<path class="st2" d="M407.3,692.61c-0.44,0-0.88-0.1-1.29-0.3c-0.98-0.49-1.6-1.49-1.6-2.58V437.67c0-1.1,0.62-2.09,1.6-2.58
						c0.98-0.49,2.15-0.38,3.03,0.28l167.49,126.03c0.73,0.54,1.15,1.4,1.15,2.31c0,0.91-0.43,1.76-1.15,2.31L409.04,692.03
						C408.53,692.42,407.92,692.61,407.3,692.61z M410.19,443.45v240.48l159.8-120.24L410.19,443.45z"/>
				</g>
			</g>
			<g>
				<g>
					<polygon class="st6" points="189.01,563.7 407.3,689.72 214.41,771.77 					"/>
				</g>
				<g>
					<path class="st2" d="M214.41,774.65c-0.5,0-1-0.13-1.44-0.39c-0.79-0.45-1.31-1.25-1.42-2.15l-25.4-208.07
						c-0.13-1.09,0.36-2.15,1.27-2.76c0.91-0.61,2.09-0.64,3.04-0.09l218.29,126.03c0.95,0.55,1.51,1.59,1.44,2.68
						c-0.07,1.09-0.74,2.05-1.75,2.48l-192.89,82.04C215.18,774.58,214.8,774.65,214.41,774.65z M192.58,569.09l24.23,198.51
						l184.03-78.27L192.58,569.09z"/>
				</g>
			</g>
			<g>
				<g>
					<g>
						
							<rect x="203.29" y="343.08" transform="matrix(0.3914 -0.9202 0.9202 0.3914 -199.0206 401.5005)" class="st7" width="1.47" height="16.27"/>
					</g>
					<g>
						
							<rect x="189.16" y="341.13" transform="matrix(0.3915 -0.9202 0.9202 0.3915 -202.0934 384.8029)" class="st7" width="1.47" height="8.13"/>
					</g>
					<g>
						
							<rect x="180.64" y="339.55" transform="matrix(0.3916 -0.9202 0.9202 0.3916 -203.9454 374.7306)" class="st7" width="1.47" height="4.07"/>
					</g>
					<g>
						
							<rect x="174.94" y="338.13" transform="matrix(0.3914 -0.9202 0.9202 0.3914 -205.1801 368.0659)" class="st7" width="1.47" height="2.03"/>
					</g>
					<g>
						
							<rect x="170.63" y="336.81" transform="matrix(0.3914 -0.9202 0.9202 0.3914 -206.1151 362.9917)" class="st7" width="1.47" height="1.02"/>
					</g>
					<g>
						
							<rect x="452.98" y="346.81" transform="matrix(0.5003 -0.8659 0.8659 0.5003 -71.3926 571.3975)" class="st7" width="12.7" height="1.47"/>
					</g>
					<g>
						
							<rect x="462.41" y="335.99" transform="matrix(0.5003 -0.8659 0.8659 0.5003 -58.8925 571.4009)" class="st7" width="6.35" height="1.47"/>
					</g>
					<g>
						
							<rect x="467.87" y="329.28" transform="matrix(0.4992 -0.8665 0.8665 0.4992 -50.8643 572.0262)" class="st7" width="3.18" height="1.47"/>
					</g>
					<g>
						
							<rect x="471.34" y="324.64" transform="matrix(0.4992 -0.8665 0.8665 0.4992 -45.5015 572.024)" class="st7" width="1.59" height="1.47"/>
					</g>
					<g>
						<rect x="458.51" y="354.89" class="st7" width="19.83" height="1.47"/>
					</g>
					<g>
						<rect x="482.18" y="354.89" class="st7" width="9.91" height="1.47"/>
					</g>
					<g>
						<rect x="495.94" y="354.89" class="st7" width="4.96" height="1.47"/>
					</g>
					<g>
						<rect x="504.74" y="354.89" class="st7" width="2.48" height="1.47"/>
					</g>
					<g>
						<rect x="511.06" y="354.89" class="st7" width="1.24" height="1.47"/>
					</g>
					<g>
						<rect x="199.21" y="354.89" class="st7" width="12.74" height="1.47"/>
					</g>
					<g>
						<rect x="190.37" y="354.89" class="st7" width="6.37" height="1.47"/>
					</g>
					<g>
						<rect x="184.72" y="354.89" class="st7" width="3.18" height="1.47"/>
					</g>
					<g>
						<rect x="180.65" y="354.89" class="st7" width="1.59" height="1.47"/>
					</g>
					<g>
						<rect x="177.39" y="354.89" class="st7" width="0.8" height="1.47"/>
					</g>
				</g>
				<g>
					<g>
						<path class="st2" d="M407.3,440.56c-0.38,0-0.76-0.08-1.13-0.23l-192.89-82.04c-1.26-0.54-1.97-1.89-1.7-3.23
							c0.27-1.34,1.46-2.31,2.83-2.31h240.26c1.03,0,1.99,0.55,2.5,1.44c0.51,0.89,0.51,1.99,0,2.89l-47.37,82.04
							C409.27,440.03,408.3,440.56,407.3,440.56z M228.58,358.51l177.5,75.49l43.59-75.49H228.58z"/>
					</g>
				</g>
			</g>
			<g>
				<g>
					<g>
						
							<rect x="207.64" y="343.69" transform="matrix(0.1202 -0.9928 0.9928 0.1202 -152.0823 517.2435)" class="st7" width="16.27" height="1.47"/>
					</g>
					<g>
						
							<rect x="213.57" y="328.45" transform="matrix(0.1202 -0.9928 0.9928 0.1202 -135.3159 505.6819)" class="st7" width="8.13" height="1.47"/>
					</g>
					<g>
						
							<rect x="216.73" y="319.26" transform="matrix(0.1202 -0.9928 0.9928 0.1202 -125.2105 498.7128)" class="st7" width="4.07" height="1.47"/>
					</g>
					<g>
						
							<rect x="218.49" y="313.11" transform="matrix(0.1202 -0.9928 0.9928 0.1202 -118.4383 494.0422)" class="st7" width="2.03" height="1.47"/>
					</g>
					<g>
						
							<rect x="219.57" y="308.46" transform="matrix(0.1226 -0.9925 0.9925 0.1226 -113.7614 489.724)" class="st7" width="1.02" height="1.47"/>
					</g>
					<g>
						<rect x="78.6" y="562.96" class="st7" width="12.7" height="1.47"/>
					</g>
					<g>
						<rect x="69.28" y="562.96" class="st7" width="6.35" height="1.47"/>
					</g>
					<g>
						<rect x="63.12" y="562.96" class="st7" width="3.18" height="1.47"/>
					</g>
					<g>
						<rect x="58.56" y="562.96" class="st7" width="1.59" height="1.47"/>
					</g>
					<g>
						
							<rect x="77.49" y="574.87" transform="matrix(0.4998 -0.8662 0.8662 0.4998 -454.8513 363.6516)" class="st7" width="19.83" height="1.47"/>
					</g>
					<g>
						
							<rect x="73.09" y="591.08" transform="matrix(0.4992 -0.8665 0.8665 0.4992 -473.7078 363.9852)" class="st7" width="9.92" height="1.47"/>
					</g>
					<g>
						
							<rect x="69.93" y="600.85" transform="matrix(0.4992 -0.8665 0.8665 0.4992 -484.9954 363.9903)" class="st7" width="4.96" height="1.47"/>
					</g>
					<g>
						
							<rect x="67.39" y="607.4" transform="matrix(0.5003 -0.8659 0.8659 0.5003 -492.2686 363.3196)" class="st7" width="2.48" height="1.47"/>
					</g>
					<g>
						
							<rect x="65.15" y="612.34" transform="matrix(0.4992 -0.8665 0.8665 0.4992 -498.2685 363.9956)" class="st7" width="1.24" height="1.47"/>
					</g>
					<g>
						
							<rect x="212.46" y="347.24" transform="matrix(0.5003 -0.8659 0.8659 0.5003 -191.9447 363.3671)" class="st7" width="12.74" height="1.47"/>
					</g>
					<g>
						
							<rect x="221.66" y="336.83" transform="matrix(0.5003 -0.8659 0.8659 0.5003 -179.9266 363.3704)" class="st7" width="6.37" height="1.47"/>
					</g>
					<g>
						
							<rect x="226.87" y="330.55" transform="matrix(0.5003 -0.8659 0.8659 0.5003 -172.6839 363.3706)" class="st7" width="3.18" height="1.47"/>
					</g>
					<g>
						
							<rect x="230.09" y="326.35" transform="matrix(0.4992 -0.8665 0.8665 0.4992 -167.7857 363.8496)" class="st7" width="1.59" height="1.47"/>
					</g>
					<g>
						
							<rect x="232.32" y="323.17" transform="matrix(0.4992 -0.8665 0.8665 0.4992 -164.1196 363.8484)" class="st7" width="0.8" height="1.47"/>
					</g>
				</g>
				<g>
					<g>
						<path class="st2" d="M189.01,566.58H94.28c-1.03,0-1.99-0.55-2.5-1.44c-0.51-0.89-0.51-2,0-2.89l120.13-208.07
							c0.69-1.19,2.11-1.73,3.42-1.3c1.3,0.44,2.12,1.73,1.95,3.09l-25.4,208.07C191.7,565.49,190.47,566.58,189.01,566.58z
							 M99.28,560.81h87.17l23.37-191.47L99.28,560.81z"/>
					</g>
				</g>
			</g>
			<g>
				<g>
					<g>
						
							<rect x="452.98" y="346.81" transform="matrix(0.5003 -0.8659 0.8659 0.5003 -71.3926 571.3975)" class="st7" width="12.7" height="1.47"/>
					</g>
					<g>
						
							<rect x="462.41" y="335.99" transform="matrix(0.5003 -0.8659 0.8659 0.5003 -58.8925 571.4009)" class="st7" width="6.35" height="1.47"/>
					</g>
					<g>
						
							<rect x="467.87" y="329.28" transform="matrix(0.4992 -0.8665 0.8665 0.4992 -50.8643 572.0262)" class="st7" width="3.18" height="1.47"/>
					</g>
					<g>
						
							<rect x="471.34" y="324.64" transform="matrix(0.4992 -0.8665 0.8665 0.4992 -45.5015 572.024)" class="st7" width="1.59" height="1.47"/>
					</g>
					<g>
						
							<rect x="447.05" y="333.8" transform="matrix(0.866 -0.5 0.5 0.866 -111.8682 269.9724)" class="st7" width="1.47" height="19.83"/>
					</g>
					<g>
						
							<rect x="437.69" y="322.55" transform="matrix(0.8661 -0.4999 0.4999 0.8661 -105.0092 263.0545)" class="st7" width="1.47" height="9.92"/>
					</g>
					<g>
						
							<rect x="432.06" y="315.26" transform="matrix(0.866 -0.5001 0.5001 0.866 -100.8917 259.0221)" class="st7" width="1.47" height="4.96"/>
					</g>
					<g>
						
							<rect x="428.27" y="309.95" transform="matrix(0.8661 -0.4998 0.4998 0.8661 -98.1072 256.0913)" class="st7" width="1.47" height="2.48"/>
					</g>
					<g>
						
							<rect x="425.42" y="305.63" transform="matrix(0.8663 -0.4995 0.4995 0.8663 -96.002 253.8194)" class="st7" width="1.47" height="1.24"/>
					</g>
				</g>
				<g>
					<g>
						<path class="st2" d="M574.8,566.58c-0.61,0-1.22-0.19-1.74-0.58L405.57,439.97c-1.17-0.88-1.49-2.49-0.77-3.75l47.37-82.04
							c1.03-1.79,3.97-1.79,5,0L577.3,562.25c0.69,1.19,0.44,2.7-0.59,3.61C576.17,566.34,575.48,566.58,574.8,566.58z
							 M411.08,436.9l154.13,115.97L454.67,361.4L411.08,436.9z"/>
					</g>
				</g>
			</g>
			<g>
				<g>
					<g>
						<rect x="74.86" y="562.96" class="st7" width="16.27" height="1.47"/>
					</g>
					<g>
						<rect x="63.57" y="562.96" class="st7" width="8.13" height="1.47"/>
					</g>
					<g>
						<rect x="56.36" y="562.96" class="st7" width="4.07" height="1.47"/>
					</g>
					<g>
						<rect x="51.17" y="562.96" class="st7" width="2.03" height="1.47"/>
					</g>
					<g>
						<rect x="47" y="562.96" class="st7" width="1.02" height="1.47"/>
					</g>
					<g>
						
							<rect x="89.13" y="549.67" transform="matrix(0.8661 -0.4999 0.4999 0.8661 -265.9109 119.3696)" class="st7" width="1.47" height="12.74"/>
					</g>
					<g>
						
							<rect x="83.12" y="542.45" transform="matrix(0.8659 -0.5002 0.5002 0.8659 -261.6667 115.0956)" class="st7" width="1.47" height="6.37"/>
					</g>
					<g>
						
							<rect x="79.5" y="537.77" transform="matrix(0.8663 -0.4995 0.4995 0.8663 -258.7065 112.1984)" class="st7" width="1.47" height="3.18"/>
					</g>
					<g>
						
							<rect x="77.07" y="534.36" transform="matrix(0.8662 -0.4997 0.4997 0.8662 -257.0166 110.4906)" class="st7" width="1.47" height="1.59"/>
					</g>
					<g>
						
							<rect x="75.24" y="531.58" transform="matrix(0.8656 -0.5007 0.5007 0.8656 -256.1467 109.5207)" class="st7" width="1.47" height="0.8"/>
					</g>
				</g>
				<g>
					<g>
						<path class="st2" d="M214.41,774.65c-1.01,0-1.97-0.53-2.5-1.44L91.78,565.14c-0.51-0.89-0.51-2,0-2.89
							c0.52-0.9,1.47-1.44,2.5-1.44h94.73c1.46,0,2.69,1.09,2.87,2.54l25.4,208.07c0.17,1.36-0.65,2.65-1.95,3.09
							C215.03,774.61,214.72,774.65,214.41,774.65z M99.28,566.58l110.54,191.47l-23.37-191.47H99.28z"/>
					</g>
				</g>
			</g>
			<g>
				<g>
					<g>
						
							<rect x="203.29" y="343.08" transform="matrix(0.3914 -0.9202 0.9202 0.3914 -199.0206 401.5005)" class="st7" width="1.47" height="16.27"/>
					</g>
					<g>
						
							<rect x="189.16" y="341.13" transform="matrix(0.3915 -0.9202 0.9202 0.3915 -202.0934 384.8029)" class="st7" width="1.47" height="8.13"/>
					</g>
					<g>
						
							<rect x="180.64" y="339.55" transform="matrix(0.3916 -0.9202 0.9202 0.3916 -203.9454 374.7306)" class="st7" width="1.47" height="4.07"/>
					</g>
					<g>
						
							<rect x="174.94" y="338.13" transform="matrix(0.3914 -0.9202 0.9202 0.3914 -205.1801 368.0659)" class="st7" width="1.47" height="2.03"/>
					</g>
					<g>
						
							<rect x="170.63" y="336.81" transform="matrix(0.3914 -0.9202 0.9202 0.3914 -206.1151 362.9917)" class="st7" width="1.47" height="1.02"/>
					</g>
					<g>
						
							<rect x="209.11" y="346.12" transform="matrix(0.1202 -0.9928 0.9928 0.1202 -154.7579 519.088)" class="st7" width="12.74" height="1.47"/>
					</g>
					<g>
						
							<rect x="213.75" y="334.19" transform="matrix(0.1202 -0.9928 0.9928 0.1202 -141.6299 510.0343)" class="st7" width="6.37" height="1.47"/>
					</g>
					<g>
						
							<rect x="216.22" y="327" transform="matrix(0.1202 -0.9928 0.9928 0.1202 -133.719 504.5787)" class="st7" width="3.18" height="1.47"/>
					</g>
					<g>
						
							<rect x="217.61" y="322.18" transform="matrix(0.1202 -0.9928 0.9928 0.1202 -128.4161 500.9218)" class="st7" width="1.59" height="1.47"/>
					</g>
					<g>
						
							<rect x="218.45" y="318.54" transform="matrix(0.1226 -0.9925 0.9925 0.1226 -124.8417 497.3445)" class="st7" width="0.8" height="1.47"/>
					</g>
				</g>
				<g>
					<g>
						<path class="st2" d="M189.01,566.58c-0.56,0-1.11-0.16-1.59-0.48c-0.91-0.61-1.41-1.67-1.27-2.76l25.4-208.07
							c0.11-0.9,0.64-1.7,1.42-2.15c0.78-0.45,1.74-0.51,2.57-0.16l192.89,82.04c1.01,0.43,1.69,1.39,1.75,2.48
							c0.07,1.09-0.49,2.13-1.44,2.68L190.46,566.2C190.01,566.46,189.51,566.58,189.01,566.58z M216.81,359.79L192.58,558.3
							l208.26-120.24L216.81,359.79z"/>
					</g>
				</g>
			</g>
			<g>
				<polygon class="st2" points="407.3,689.72 214.41,771.77 454.67,771.77 				"/>
				<path class="st2" d="M454.67,774.65H214.41c-1.37,0-2.56-0.97-2.83-2.31c-0.27-1.34,0.44-2.7,1.7-3.23l192.89-82.04
					c1.35-0.58,2.9-0.05,3.63,1.21l47.37,82.04c0.51,0.89,0.51,2,0,2.89C456.65,774.1,455.7,774.65,454.67,774.65z M228.58,768.88
					h221.08l-43.59-75.49L228.58,768.88z"/>
			</g>
		</g>
		<g>
			<g>
				<g>
					<g>
						<path class="st2" d="M706.24,505.82v37.49h-23.96V439.81h86.9c24.11,0,33.23,10.15,33.23,24.99v16.03
							c0,14.85-9.12,24.99-33.23,24.99H706.24z M778.43,465.24c0-3.97-2.35-6.76-7.06-6.76h-65.13V487h65.28
							c4.7,0,6.91-2.21,6.91-6.03V465.24z"/>
					</g>
				</g>
				<g>
					<g>
						<path class="st2" d="M844.61,543.31V439.81h24.26v84.69h81.9v18.82H844.61z"/>
					</g>
				</g>
				<g>
					<g>
						<path class="st2" d="M1111.33,543.31l-50.14-78.81l-51.17,78.81h-26.76l68.96-103.51h17.64l68.52,103.51H1111.33z"/>
					</g>
				</g>
				<g>
					<g>
						<path class="st2" d="M1197.65,543.31v-84.84h-53.37v-18.67h129.68v18.67h-52.2v84.84H1197.65z"/>
					</g>
				</g>
				<g>
					<g>
						<path class="st2" d="M1343.81,543.31c-24.11,0-33.23-10.15-33.23-24.99V464.8c0-14.85,9.12-24.99,33.23-24.99h70.13
							c24.11,0,33.23,10.15,33.23,24.99v53.52c0,14.85-9.12,24.99-33.23,24.99H1343.81z M1423.21,464.51c0-4.12-3.24-6.03-9.27-6.03
							h-70.13c-6.03,0-9.26,1.91-9.26,6.03v53.96c0,4.26,3.24,6.03,9.26,6.03h70.13c6.03,0,9.27-1.77,9.27-6.03V464.51z"/>
					</g>
				</g>
				<g>
					<g>
						<path class="st2" d="M1622.74,543.31l-107.77-75.43v75.43h-20.88V439.81h20.73l98.66,70.87v-70.87h21.03v103.51H1622.74z"/>
					</g>
				</g>
				<g>
					<g>
						<path class="st2" d="M1682.74,543.31V439.81h23.96v103.51H1682.74z"/>
					</g>
				</g>
				<g>
					<g>
						<path class="st2" d="M1787.57,543.31c-24.11,0-33.23-10.15-33.23-24.99V464.8c0-14.85,9.12-24.99,33.23-24.99H1873v18.67
							h-85.43c-6.03,0-9.26,1.91-9.26,6.03v53.96c0,4.26,3.24,6.03,9.26,6.03H1873v18.82H1787.57z"/>
					</g>
				</g>
			</g>
			<g>
				<g>
					<g>
						<g>
							<path class="st7" d="M932.16,637.67v-28.1h25.75c7.94,0,10.38,2.76,10.38,8.3v11.78c0,5.27-2.43,8.02-10.38,8.02H932.16z
								 M962.98,617.87c0-3.23-1.12-4.15-5.07-4.15h-20.44v19.8h20.44c3.95,0,5.07-0.92,5.07-3.91V617.87z"/>
						</g>
					</g>
					<g>
						<g>
							<path class="st7" d="M993.22,637.67v-28.1h28.9v4.15h-23.59v7.03h22.39v4.15h-22.39v8.62h23.59v4.15H993.22z"/>
						</g>
					</g>
					<g>
						<g>
							<path class="st7" d="M1046.94,637.67v-4.15h24.43c2.4,0,3.51-0.92,3.51-2.59v-3.55c0-1.68-1.12-2.59-3.51-2.59h-16.53
								c-6.39,0-8.82-2.76-8.82-6.79v-1.64c0-4.03,2.43-6.79,8.82-6.79h23.79v4.15h-23.79c-2.4,0-3.51,0.92-3.51,2.59v1.72
								c0,1.68,1.12,2.59,3.51,2.59h16.53c6.39,0,8.82,2.76,8.82,6.79v3.47c0,4.03-2.44,6.79-8.82,6.79H1046.94z"/>
						</g>
					</g>
					<g>
						<g>
							<path class="st7" d="M1104.69,637.67v-28.1h5.31v28.1H1104.69z"/>
						</g>
					</g>
					<g>
						<g>
							<path class="st7" d="M1145.16,637.67c-6.67,0-10.02-2.04-10.02-6.07v-15.97c0-4.03,3.35-6.07,10.02-6.07h22v4.15h-22
								c-3.15,0-4.71,0.64-4.71,1.92v15.97c0,1.28,1.56,1.92,4.71,1.92h12.41c3.15,0,4.71-0.6,4.71-1.84v-9.34h5.31v9.34
								c0,3.99-3.35,5.99-10.02,5.99H1145.16z"/>
						</g>
					</g>
					<g>
						<g>
							<path class="st7" d="M1227.06,637.67l-29.98-21.88v21.88h-4.63v-28.1h4.59l27.98,20.88v-20.88h4.63v28.1H1227.06z"/>
						</g>
					</g>
					<g>
						<g>
							<path class="st7" d="M1303.4,637.67c-6.95,0-8.9-2.87-8.9-6.07v-4.59c0-2.71,1.56-4.03,3.68-4.59c-2-0.4-3.31-2.23-3.31-4.67
								v-2.11c0-3.75,2.39-6.07,8.62-6.07h12.73v4.15h-12.73c-2.48,0-3.31,0.64-3.31,2.2v2.43c0,1.56,0.84,2.2,3.31,2.2h21.04v4.15
								h-3.44v12.97H1303.4z M1315.77,624.7h-12.38c-2.11,0-3.59,0.64-3.59,2.4v3.51c0,2.28,1.48,2.92,3.59,2.92h12.38V624.7z"/>
						</g>
					</g>
					<g>
						<g>
							<path class="st7" d="M1387.56,637.67v-28.1h22.88c6.23,0,8.62,2.32,8.62,6.07v2.59c0,2.43-1.32,4.27-3.31,4.67
								c2.12,0.56,3.68,1.88,3.68,4.59v4.11c0,3.2-1.96,6.07-8.9,6.07H1387.56z M1413.75,615.92c0-1.56-0.84-2.2-3.31-2.2h-17.57
								v7.31h17.57c2.47,0,3.31-0.64,3.31-2.2V615.92z M1414.11,627.57c0-1.75-1.48-2.39-3.59-2.39h-17.64v8.34h17.64
								c2.11,0,3.59-0.64,3.59-2.92V627.57z"/>
						</g>
					</g>
					<g>
						<g>
							<path class="st7" d="M1453.06,637.67c-6.39,0-8.82-2.76-8.82-6.79v-21.32h5.31v21.36c0,1.67,1.12,2.59,3.51,2.59h17.45
								c2.39,0,3.51-0.92,3.51-2.59v-21.36h5.31v21.32c0,4.03-1.32,6.79-7.7,6.79H1453.06z"/>
						</g>
					</g>
					<g>
						<g>
							<path class="st7" d="M1504.54,637.67v-28.1h5.31v28.1H1504.54z"/>
						</g>
					</g>
					<g>
						<g>
							<path class="st7" d="M1535.19,637.67v-28.1h5.35v23.95h22.79v4.15H1535.19z"/>
						</g>
					</g>
					<g>
						<g>
							<path class="st7" d="M1586.99,637.67v-28.1h25.75c7.94,0,10.38,2.76,10.38,8.3v11.78c0,5.27-2.44,8.02-10.38,8.02H1586.99z
								 M1617.81,617.87c0-3.23-1.12-4.15-5.07-4.15h-20.44v19.8h20.44c3.95,0,5.07-0.92,5.07-3.91V617.87z"/>
						</g>
					</g>
				</g>
				<g>
					<rect x="682.28" y="621.55" class="st2" width="206.96" height="4.15"/>
				</g>
				<g>
					<rect x="1666.04" y="621.55" class="st2" width="206.96" height="4.15"/>
				</g>
			</g>
		</g>
	</g>
</g>
</svg>
